<?xml version="1.0" encoding="UTF-8"?>
<!-- Generated by jsxcad -->
<!DOCTYPE svg PUBLIC "-//W3C//DTD SVG 1.1 Tiny//EN" "http://www.w3.org/Graphics/SVG/1.1/DTD/svg11-tiny.dtd">
<svg baseProfile="tiny" height="12.235820440185973mm" width="15.591916654444482mm" viewBox="-7.791916654444479 -6.517960705105058 15.591916654444482 12.235820440185973" version="1.1" stroke="black" stroke-width=".1" fill="none" xmlns="http://www.w3.org/2000/svg">
<path fill="#000000" stroke="#000000" d="M0.4160522377014138 -2.6941554877699767 L0.14303336755597731 -2.7068179626002054 L-4.904815075324638e-16 -2.713451776649746 L-4.904815075324638e-16 -3.773350253807107 L0.3426312545776348 -3.7574591923767087 L0.451883475728169 -3.7523921305295613 L0.48947322082519285 -3.7506487374779667 L0.48947322082519285 -2.6907502603206055 z"/>
<path fill="#000000" stroke="#000000" d="M-3.71525486366482 -1.4756298672466535 L-3.68443136978569 -1.5852818846481787 L-3.654802839705779 -1.6906829176603324 L-3.650930763054341 -1.7044575084977118 L-3.6261614863929372 -1.792572151378557 L-3.6222218485840063 -1.8065870854179822 L-3.6222218485840063 -0.7466886082606218 L-3.629197610588095 -0.7218729147619948 L-3.636576305819174 -0.6956238198004866 L-3.6652507754026233 -0.5936167777022237 L-3.701482179940712 -0.464726567641314 L-3.7179182301517892 -0.4062566851930543 L-3.7179182301517892 -1.4661551623504145 z"/>
<path fill="#000000" stroke="#000000" d="M0.07342098312377512 2.5902495948856545 L0.1900383574497832 2.584840941020873 L0.48947322082518907 2.570953306005886 L0.48947322082518907 1.5110548288485255 L0.14684196624755405 1.5269458902789232 L0.014942503703967196 1.5330633195382604 L-3.7899116235557264e-15 1.5337563451776652 L-3.7899116235557264e-15 2.5936548223350253 z"/>
<path fill="#000000" stroke="#000000" d="M-2.393493879982758 -3.1563443756632 L-2.3934206731524355 -3.156389804967753 L-2.2828553587827027 -3.2250023281078324 L-2.2828553587827023 -2.165103850950472 L-2.33817461938273 -2.130774874728156 L-2.4472877108713154 -2.0630635444857344 L-2.6516504294495533 -1.9362440094683633 L-2.651650429449553 -2.9961424866257236 L-2.645507291218013 -2.9999546786903593 z"/>
<path fill="#000000" stroke="#000000" d="M1.4437105194574573 2.38864744982252 L1.5010534406637202 2.3686372525455908 L1.8749999999999976 2.2381460904990638 L1.8749999999999976 1.1782476133417032 L1.6533498146430774 1.2555939333784196 L1.5670440099583574 1.285710923262373 L1.435062871369083 1.3317666275140883 L1.435062871369083 2.3916651046714485 z"/>
<path fill="#000000" stroke="#000000" d="M-3.5126819816230777 -0.9750314990904736 L-3.5737094392930806 -0.847815842444337 L-3.6222218485840063 -0.7466886082606217 L-3.6222218485840063 -1.8065870854179822 L-3.5836795850199947 -1.8869309102326641 L-3.5392585532341414 -1.9795294051280838 L-3.51185032741733 -2.0366636128751168 L-3.495044474796143 -2.071696492472744 L-3.464548246917326 -2.1352678389281747 L-3.464548246917326 -1.0753693617708147 L-3.488199287167328 -1.0260672487442857 z"/>
<path fill="#000000" stroke="#000000" d="M-3.724857384686889 -0.33134083293704 L-3.7377570023232143 -0.192075185499187 L-3.75 -0.059898477157358944 L-3.75 -1.1197969543147193 L-3.7411904775693348 -1.2149054978013127 L-3.72865479943875 -1.3502420155297359 L-3.7275427611062524 -1.362247699939706 L-3.7179182301517892 -1.4661551623504145 L-3.7179182301517892 -0.40625668519305425 L-3.722730495629021 -0.3543029539877 z"/>
<path fill="#000000" stroke="#000000" d="M-3.206717228476718 1.3101688099093718 L-3.135417767339949 1.3856763302498045 L-2.9750750260921324 1.5554824213924296 L-2.9750750260921324 0.49558394423506935 L-3.165839192761791 0.29356097007255105 L-3.2475952641916446 0.20697969543147182 L-3.2475952641916446 1.266878172588832 z"/>
<path fill="#000000" stroke="#000000" d="M-1.8090094307053657 2.2611739426249193 L-1.5109288560827792 2.365191160045068 L-1.4350628713690898 2.3916651046714468 L-1.4350628713690898 1.3317666275140865 L-1.7430188614107287 1.224303317593417 L-1.8750000000000024 1.1782476133417015 L-1.8750000000000024 2.2381460904990615 z"/>
<path fill="#000000" stroke="#000000" d="M-2.2216770549652987 2.074232775715248 L-1.8750000000000027 2.2381460904990615 L-1.8750000000000027 1.1782476133417015 L-2.0553859113067006 1.0929588633679261 L-2.1604987511478937 1.0432601776373842 L-2.282855358782704 0.9854084194783911 L-2.282855358782704 2.045306896635751 z"/>
<path fill="#000000" stroke="#000000" d="M-3.588300080250412 0.6976037595769621 L-3.464548246917325 0.9555724074560951 L-3.464548246917325 -0.10432606970126526 L-3.568102392956934 -0.32019134067639793 L-3.5749197680840017 -0.3344025971583998 L-3.622221848584006 -0.4330068232114575 L-3.622221848584006 0.6268916539459027 L-3.598570808334004 0.6761937669724316 z"/>
<path fill="#000000" stroke="#000000" d="M3.599223187654121 -0.38506463679435526 L3.51185032741733 -0.2029302957543242 L3.4645482469173254 -0.10432606970126584 L3.4645482469173254 0.9555724074560944 L3.488199287167328 0.9062702944295652 L3.5787412962114558 0.7175296590766572 L3.622221848584007 0.6268916539459 L3.6222218485840068 -0.43300682321146033 z"/>
<path fill="#000000" stroke="#000000" d="M1.0402451369696444 2.486501374019088 L1.435062871369083 2.3916651046714485 L1.435062871369083 1.3317666275140883 L1.1468173039012277 1.4010039790637243 L1.1099188548048395 1.409867084623909 L0.9705714191344496 1.4433387090995464 L0.9705714191344496 2.5032371862569067 z"/>
<path fill="#000000" stroke="#000000" d="M1.958515206657978 2.1986590400522577 L2.282855358782701 2.045306896635753 L2.282855358782701 0.985408419478393 L2.1145323756535688 1.0649936637967912 L1.9973566076348084 1.1203958551827105 L1.8749999999999976 1.1782476133417035 L1.8749999999999976 2.2381460904990633 L1.936178303817403 2.209220211419567 z"/>
<path fill="#000000" stroke="#000000" d="M3.722730495629021 0.23450599967297905 L3.7458765612733127 -0.015381392997806135 L3.7499999999999996 -0.05989847715736012 L3.7499999999999996 -1.1197969543147204 L3.748263274730058 -1.101047083120165 L3.7275427611062524 -0.8773462086897352 L3.717918230151789 -0.7734387462790272 L3.717918230151789 0.286459730878333 z"/>
<path fill="#000000" stroke="#000000" d="M3.745187734522768 -0.11185220836271444 L3.7194245473071197 -0.3899943245713565 L3.717918230151789 -0.4062566851930555 L3.717918230151789 -1.4661551623504157 L3.7403754690455364 -1.223704416725429 L3.75 -1.1197969543147204 L3.75 -0.05989847715736012 z"/>
<path fill="#000000" stroke="#000000" d="M3.689209315681454 -1.568284739270686 L3.7176950071166686 -1.4669492597433782 L3.717918230151789 -1.4661551623504159 L3.717918230151789 -0.40625668519305547 L3.7035637729166213 -0.4573214736531906 L3.622221848584006 -0.746688608260623 L3.622221848584006 -1.806587085417983 z"/>
<path fill="#000000" stroke="#000000" d="M2.9265613365957446 -1.714424070771332 L2.808944464448541 -1.8093266980998122 L2.651650429449553 -1.9362440094683633 L2.6516504294495524 -2.996142486625724 L2.831931768141866 -2.8506771942076177 L2.8780476470993577 -2.813467242992875 L2.9750750260921315 -2.7351778528645108 L2.975075026092131 -1.675279375707151 z"/>
<path fill="#000000" stroke="#000000" d="M3.423744818561638 -0.045777243477626205 L3.3126811590093492 0.11358796589165022 L3.247595264191645 0.2069796954314714 L3.247595264191645 1.2668781725888316 L3.280138211600497 1.2201823078189211 L3.3883426212875585 1.0649198351616158 L3.4645482469173254 0.9555724074560944 L3.4645482469173254 -0.10432606970126583 z"/>
<path fill="#000000" stroke="#000000" d="M1.9053270860982037 -3.403502490475135 L2.1604987511478906 -3.282854086266827 L2.2828553587827014 -3.2250023281078337 L2.2828553587827014 -2.165103850950473 L2.221677054965296 -2.1940297300299694 L1.8749999999999991 -2.357943044813783 L1.8749999999999991 -3.4178415219711438 z"/>
<path fill="#000000" stroke="#000000" d="M1.8208589087884695 -2.37683594202134 L1.8090094307053621 -2.3809708969396413 L1.4350628713690858 -2.5114620589861687 L1.4350628713690858 -3.571360536143529 L1.7430188614107252 -3.4638972262228593 L1.874999999999999 -3.4178415219711438 L1.874999999999999 -2.3579430448137835 z"/>
<path fill="#000000" stroke="#000000" d="M-1.109918854804843 -3.649460993253349 L-0.9705714191344531 -3.6829326177289867 L-0.9705714191344531 -2.6230341405716264 L-1.0402451369696482 -2.606298328333808 L-1.4350628713690865 -2.5114620589861683 L-1.4350628713690865 -3.571360536143528 z"/>
<path fill="#000000" stroke="#000000" d="M2.7001641189459393 1.7773023600894617 L2.803065395026685 1.6942734435978397 L2.9750750260921306 1.5554824213924308 L2.9750750260921306 0.4955839442350705 L2.883943731703402 0.5691159053512558 L2.7486778084423262 0.6782591878679196 L2.6516504294495524 0.7565485779962835 L2.6516504294495524 1.8164470551536438 z"/>
<path fill="#000000" stroke="#000000" d="M1.3653891535338907 -2.528197871223987 L1.1187849322593648 -2.587432860722699 L0.9705714191344521 -2.623034140571627 L0.9705714191344521 -3.6829326177289867 L1.263229275753531 -3.6126354225960284 L1.2957154356986957 -3.604832160619166 L1.4350628713690856 -3.5713605361435286 L1.4350628713690856 -2.5114620589861687 z"/>
<path fill="#000000" stroke="#000000" d="M3.2067172284767174 -1.4299657642240933 L3.160489361845803 -1.4789219768556705 L2.975075026092131 -1.675279375707151 L2.975075026092131 -2.735177852864511 L3.1658391927617906 -2.533154878701993 L3.1695770194481905 -2.5291964473190265 L3.2475952641916446 -2.4465736040609136 L3.247595264191644 -1.3866751269035535 z"/>
<path fill="#000000" stroke="#000000" d="M3.432005299508473 -1.1220652265407265 L3.427929995303944 -1.1279128792330322 L3.247595264191644 -1.3866751269035538 L3.247595264191644 -2.4465736040609136 L3.3994623520996208 -2.228659568467997 L3.428342581039499 -2.1872193372511473 L3.464548246917325 -2.1352678389281756 L3.464548246917325 -1.0753693617708158 z"/>
<path fill="#000000" stroke="#000000" d="M3.614479774183674 -0.7628274597914739 L3.598570808334004 -0.795990721287152 L3.464548246917325 -1.0753693617708155 L3.464548246917325 -2.1352678389281756 L3.5749197680840017 -1.9051913114710413 L3.610449744759843 -1.831126792220049 L3.622221848584006 -1.8065870854179833 L3.622221848584006 -0.746688608260623 z"/>
<path fill="#000000" stroke="#000000" d="M2.596331168849525 -1.9705729856906804 L2.3686267931530978 -2.111877443020975 L2.282855358782702 -2.1651038509504725 L2.2828553587827023 -3.225002328107833 L2.412211571516147 -3.1447289061031083 L2.541011908249497 -3.064800439070357 L2.6516504294495524 -2.996142486625724 L2.6516504294495533 -1.936244009468364 z"/>
<path fill="#000000" stroke="#000000" d="M0.9705714191344522 -3.6829326177289876 L0.9705714191344522 -2.6230341405716264 L0.8984066893880633 -2.6331915585339734 L0.48947322082519285 -2.6907502603206055 L0.48947322082519285 -3.7506487374779667 L0.8262419596416745 -3.7032474536536815 z"/>
<path fill="#000000" stroke="#000000" d="M-0.4894732208251938 -2.690750260320606 L-0.4894732208251938 -3.7506487374779667 L-0.1468419662475585 -3.7665397989083647 L-4.904815075324638e-16 -3.7733502538071066 L-4.904815075324638e-16 -2.7134517766497463 L-0.07342098312377948 -2.710046549200375 z"/>
<path fill="#000000" stroke="#000000" d="M-1.8749999999999998 -2.3579430448137826 L-1.8749999999999998 -3.417841521971143 L-1.5670440099583607 -3.525304831891813 L-1.4350628713690867 -3.5713605361435286 L-1.4350628713690867 -2.511462058986168 L-1.5010534406637237 -2.48843420686031 z"/>
<path fill="#000000" stroke="#000000" d="M-0.9705714191344531 -2.623034140571627 L-0.9705714191344531 -3.6829326177289867 L-0.6338026803179716 -3.730333901553272 L-0.48947322082519384 -3.750648737477966 L-0.48947322082519384 -2.690750260320606 L-0.5616379505715827 -2.680592842358259 z"/>
<path fill="#000000" stroke="#000000" d="M-1.9361783038174052 -2.329017165734286 L-2.282855358782702 -2.165103850950473 L-2.282855358782702 -3.2250023281078333 L-2.007540532821529 -3.3551746746363396 L-1.9973566076348104 -3.35998976381215 L-1.8749999999999998 -3.4178415219711433 L-1.8749999999999998 -2.357943044813783 L-1.9311473290068901 -2.331395874523848 z"/>
<path fill="#000000" stroke="#000000" d="M-2.70016411894594 -1.8970993144041814 L-2.749829521084484 -1.857025326172508 L-2.969121285962532 -1.6800833257732843 L-2.9750750260921324 -1.6752793757071502 L-2.9750750260921324 -2.73517785286451 L-2.958572574026068 -2.7484933409389734 L-2.810755938909257 -2.8677635338912526 L-2.748677808442327 -2.91785309649736 L-2.6516504294495533 -2.9961424866257236 L-2.651650429449553 -1.9362440094683635 z"/>
<path fill="#000000" stroke="#000000" d="M-3.247595264191645 -2.4465736040609127 L-3.1624732704728062 -2.5367194560725324 L-3.065676895204795 -2.6392287059027577 L-3.056831097521986 -2.648596578223431 L-2.975075026092132 -2.7351778528645103 L-2.9750750260921324 -1.6752793757071502 L-3.0159530618070587 -1.6319887383866105 L-3.119453692537439 -1.5223795512269676 L-3.247595264191645 -1.3866751269035524 z"/>
<path fill="#000000" stroke="#000000" d="M-3.3126811590093492 -2.3531818745210913 L-3.2523904278430043 -2.4396930252798845 L-3.247595264191645 -2.4465736040609123 L-3.247595264191645 -1.3866751269035524 L-3.2553473212603357 -1.3755517027090447 L-3.280138211600497 -1.3399792621336415 L-3.3518039132958637 -1.2371461698213797 L-3.44425690077834 -1.1044854078191748 L-3.464548246917326 -1.0753693617708144 L-3.464548246917326 -2.1352678389281747 L-3.445357040047377 -2.1628052954932415 L-3.382671707612513 -2.2527524588420373 L-3.3184786577771495 -2.344863045403871 z"/>
<path fill="#000000" stroke="#000000" d="M-3.7275594925137705 -0.8775268427493098 L-3.7403754690455364 -1.0158894919040107 L-3.7446225272114697 -1.061741184710728 L-3.7499999999999996 -1.119796954314719 L-3.7499999999999996 -0.059898477157358944 L-3.748879981820775 -0.04780664147126342 L-3.745187734522768 -0.007944745952004712 L-3.734131914418822 0.11141506672931446 L-3.7185488472051 0.27965152193054027 L-3.7179182301517884 0.2864597308783359 L-3.7179182301517884 -0.7734387462790244 z"/>
<path fill="#000000" stroke="#000000" d="M-3.4530523112782836 0.9720679218070251 L-3.432005299508473 1.0022682722260055 L-3.2475952641916446 1.266878172588832 L-3.2475952641916446 0.20697969543147188 L-3.3994623520996208 -0.01093434016144411 L-3.464548246917325 -0.10432606970126526 L-3.464548246917325 0.9555724074560951 z"/>
<path fill="#000000" stroke="#000000" d="M-3.7035637729166213 0.3375245193384709 L-3.6648438584876852 0.47526739648913613 L-3.622221848584006 0.6268916539459027 L-3.622221848584006 -0.43300682321145745 L-3.682516387441702 -0.6474996334673881 L-3.689209315681454 -0.6713091693587543 L-3.7179182301517884 -0.7734387462790244 L-3.7179182301517884 0.28645973087833587 z"/>
<path fill="#000000" stroke="#000000" d="M-2.651650429449554 1.8164470551536422 L-2.651650429449554 0.7565485779962821 L-2.878047647099359 0.5738733343634331 L-2.9750750260921324 0.4955839442350693 L-2.9750750260921324 1.5554824213924294 L-2.926561336595746 1.5946271164566113 z"/>
<path fill="#000000" stroke="#000000" d="M-2.651650429449554 0.7565485779962821 L-2.651650429449554 1.8164470551536422 L-2.596331168849527 1.8507760313759587 L-2.282855358782704 2.045306896635751 L-2.282855358782704 0.9854084194783909 L-2.5410119082494993 0.8252065304409146 z"/>
<path fill="#000000" stroke="#000000" d="M-1.2957154356986995 1.3652382519897241 L-1.2958076385225294 1.3652161046263371 L-1.4350628713690898 1.3317666275140865 L-1.4350628713690898 2.3916651046714468 L-1.3653891535338947 2.4084009169092657 L-0.9705714191344553 2.5032371862569054 L-0.9705714191344553 1.4433387090995453 z"/>
<path fill="#000000" stroke="#000000" d="M-0.8984066893880666 2.5133946042192523 L-0.5611716884673232 2.560861515935302 L-0.48947322082519656 2.570953306005885 L-0.48947322082519656 1.5110548288485246 L-0.6195149892039861 1.4927510314307537 L-0.8262419596416777 1.463653545024239 L-0.9705714191344553 1.443338709099545 L-0.9705714191344553 2.5032371862569054 z"/>
<path fill="#000000" stroke="#000000" d="M0.6338026803179672 1.4907399929238319 L0.5992760412632014 1.4955997284892089 L0.48947322082518907 1.5110548288485255 L0.48947322082518907 2.570953306005886 L0.5616379505715782 2.560795888043539 L0.8518842547694299 2.519942786616778 L0.9705714191344494 2.5032371862569067 L0.9705714191344494 1.4433387090995464 z"/>
<path fill="#000000" stroke="#000000" d="M-3.7899116235557264e-15 2.5936548223350258 L-3.7899116235557264e-15 1.5337563451776652 L-0.3426312545776387 1.5178652837472668 L-0.4894732208251965 1.5110548288485246 L-0.4894732208251965 2.570953306005885 L-0.41605223770141764 2.574358533455256 z"/>
<path fill="#000000" stroke="#000000" d="M3.015953061807058 1.5121917840718908 L3.1291247498902726 1.392340758500849 L3.247595264191645 1.2668781725888316 L3.247595264191645 0.20697969543147143 L3.184306488901814 0.27400374317779574 L3.056831097521985 0.4090026695939908 L2.9750750260921306 0.4955839442350705 L2.9750750260921306 1.5554824213924308 z"/>
<path fill="#000000" stroke="#000000" d="M2.526089684870719 0.8344666804501144 L2.3934938799827568 0.9167504670337601 L2.282855358782701 0.9854084194783927 L2.282855358782701 2.045306896635753 L2.338174619382729 2.0109779204134366 L2.4122038013074234 1.9650382965196005 L2.6516504294495524 1.8164470551536438 L2.6516504294495524 0.7565485779962835 z"/>
<path fill="#000000" stroke="#000000" d="M3.6365763058191742 0.5758268654857649 L3.6984778568780783 0.3556172429001746 L3.717918230151789 0.28645973087833304 L3.717918230151789 -0.7734387462790272 L3.7081265315914953 -0.7386055925446028 L3.6509307630543417 -0.5351364001317304 L3.6222218485840068 -0.4330068232114603 L3.6222218485840068 0.6268916539459 z"/>
<path fill="#000000" stroke="#000000" d="M-6.050548067494475 -3.5431195107847895 L-4.764837166893869 -4.248246282711828 L-5.181361296948995 -3.8969907421112437 z"/>
<path fill="#000000" stroke="#000000" d="M-7.154248151742533 -2.258829812241699 L-5.856297641365724 -3.115441908702637 L-6.108002035108403 -2.6929159993268446 z"/>
<path fill="#000000" stroke="#000000" d="M3.5265507151274353 -4.983489791710222 L4.783480652212983 -4.4195321473356834 L4.052683712081767 -4.715824904894831 z"/>
<path fill="#000000" stroke="#000000" d="M-3.269576859249982 -5.070979688090198 L-2.6120609749336947 -5.260604801209318 L-2.6733661703489737 -5.312261181622371 z"/>
<path fill="#000000" stroke="#000000" d="M-6.050548067494475 -3.5431195107847895 L-5.577854110568215 -3.918021390256904 L-4.764837166893869 -4.248246282711828 z"/>
<path fill="#000000" stroke="#000000" d="M0.17755294327762142 -5.577859182262414 L0.48574560831175806 -5.706428226527245 L-0.16204949629747306 -5.717859735080911 z"/>
<path fill="#000000" stroke="#000000" d="M-6.050548067494469 3.423322556470074 L-4.764837166893871 2.008652374082385 L-5.577854110568208 3.7982244359421884 z"/>
<path fill="#000000" stroke="#000000" d="M5.370552033053966 -3.7107832721393286 L4.979288880273356 -4.076293670746057 L6.2683227005488265 -3.3446411031559737 z"/>
<path fill="#000000" stroke="#000000" d="M-7.40718965142249 -1.7893663110117843 L-6.2990023604890055 -2.254755726127792 L-7.598752844853137 -1.3055718946372488 z"/>
<path fill="#000000" stroke="#000000" d="M0.17755294327763654 5.458062227947694 L-0.16204949629747512 3.4782658264514703 L0.4857456083117558 3.466834317897804 z"/>
<path fill="#000000" stroke="#000000" d="M4.783480652212983 -4.4195321473356834 L3.526550715127436 -4.983489791710222 L4.203409360141485 -4.709271176365567 z"/>
<path fill="#000000" stroke="#000000" d="M2.3747166583815678 -5.401343673332555 L2.274838327747631 -5.339341238184916 L2.94386972687039 -5.17108910619523 z"/>
<path fill="#000000" stroke="#000000" d="M2.374716658381568 -5.401343673332555 L2.94386972687039 -5.17108910619523 L2.9653692727955585 -5.212755563269399 z"/>
<path fill="#000000" stroke="#000000" d="M2.2748383277476383 5.219544283870195 L2.374716658381559 3.1617497647031163 L2.943869726870394 5.051292151880508 z"/>
<path fill="#000000" stroke="#000000" d="M6.371121171015534 -2.03116863123337 L6.2112232376099135 -2.475521134688935 L7.510754841312833 -1.5490123107332774 z"/>
<path fill="#000000" stroke="#000000" d="M-5.856297641365723 -3.115441908702637 L-6.8420242987402355 -2.710072275904405 L-5.54639073060901 -3.5181342019399153 z"/>
<path fill="#000000" stroke="#000000" d="M-4.300957944379585 -4.568409888370882 L-5.058940297809498 -4.2609536482056605 L-3.794333869526133 -4.854299629335723 z"/>
<path fill="#000000" stroke="#000000" d="M-1.4463860707160467 3.3643765544566 L-1.9329007307446096 5.287338269518102 L-2.0701632266359513 3.240187656660091 z"/>
<path fill="#000000" stroke="#000000" d="M-2.6120609749336827 5.1408078468945995 L-2.6733661703489773 3.0726672729929287 L-2.0701632266359513 3.240187656660091 z"/>
<path fill="#000000" stroke="#000000" d="M6.268322700548822 3.2248441488412567 L5.820232749611938 3.6145814565960523 L4.9792888802733435 1.8366997621166263 z"/>
<path fill="#000000" stroke="#000000" d="M-5.856297641365724 0.875848000073195 L-7.1542481517425305 2.1390328579269844 L-6.108002035108404 0.45332209069740254 z"/>
<path fill="#000000" stroke="#000000" d="M7.005396101836822 2.3671693240819467 L6.664471355462603 2.8078884292006556 L5.708440226906473 1.0799285788262922 z"/>
<path fill="#000000" stroke="#000000" d="M6.6644713554626085 -2.9276853835153704 L7.005396101836828 -2.486966278396659 L5.708440226906485 -3.319522487455717 z"/>
<path fill="#000000" stroke="#000000" d="M-5.181361296948996 1.6573968334818021 L-6.473105277592392 3.019557610518357 L-5.546390730609011 1.2785402933104733 z"/>
<path fill="#000000" stroke="#000000" d="M-6.473105277592392 3.019557610518357 L-6.842024298740231 2.5902753215896896 L-5.546390730609011 1.278540293310473 z"/>
<path fill="#000000" stroke="#000000" d="M5.989595377157638 0.6668059335254043 L7.005396101836822 2.3671693240819467 L5.708440226906473 1.0799285788262922 z"/>
<path fill="#000000" stroke="#000000" d="M7.767683371745943 -0.5618035253078961 L6.499999999999999 -1.1197969543147206 L6.467700039875108 -1.5777585066013673 z"/>
<path fill="#000000" stroke="#000000" d="M7.671001272743187 -1.0595496301610177 L7.767683371745943 -0.5618035253078961 L6.467700039875108 -1.5777585066013673 z"/>
<path fill="#000000" stroke="#000000" d="M6.371121171015527 -0.20842527739604552 L7.510754841312828 1.4292153564185712 L6.211223237609905 0.23592722605951613 z"/>
<path fill="#000000" stroke="#000000" d="M1.128713154835042 3.40981880712874 L0.8859254511937131 5.423775483925591 L0.4857456083117558 3.4668343178978036 z"/>
<path fill="#000000" stroke="#000000" d="M0.8859254511937007 -5.543572438240313 L0.4857456083117581 -5.706428226527245 L0.17755294327762142 -5.577859182262414 z"/>
<path fill="#000000" stroke="#000000" d="M3.526550715127423 2.743895883080788 L3.5885072943029854 4.840687084635892 L2.9653692727955483 2.973161654639962 z"/>
<path fill="#000000" stroke="#000000" d="M5.323914517105494 3.973870866390308 L4.783480652212981 4.299735193020964 L4.052683712081755 2.476230996265397 z"/>
<path fill="#000000" stroke="#000000" d="M-3.7943338695261355 2.6147057207062807 L-3.2500000000000018 2.8634802962897443 L-4.498106512495957 4.4492776856249465 z"/>
<path fill="#000000" stroke="#000000" d="M-0.5322908242444364 -5.56642236607237 L0.17755294327762142 -5.577859182262414 L-0.16204949629747306 -5.717859735080911 z"/>
<path fill="#000000" stroke="#000000" d="M-7.727350379083378 0.6916584817021902 L-7.791916654444474 0.19131438542768797 L-6.491919987922994 -0.8905311827555455 z"/>
<path fill="#000000" stroke="#000000" d="M2.3747166583815678 -5.401343673332555 L1.7604630429295334 -5.547379848535055 L2.274838327747631 -5.339341238184916 z"/>
<path fill="#000000" stroke="#000000" d="M-7.40718965142249 -1.7893663110117843 L-7.154248151742534 -2.258829812241699 L-6.108002035108404 -2.6929159993268446 z"/>
<path fill="#000000" stroke="#000000" d="M5.98959537715765 -2.9063998421548263 L7.2882719298532335 -2.0261357251035776 L6.211223237609914 -2.475521134688935 z"/>
<path fill="#000000" stroke="#000000" d="M-6.427400370463334 -1.8053157227524452 L-7.727350379083379 -0.8114554360169035 L-7.598752844853137 -1.3055718946372488 z"/>
<path fill="#000000" stroke="#000000" d="M-1.2377238623587627 -5.509356758731006 L-0.5322908242444364 -5.56642236607237 L-0.8082340802086528 -5.683593629951349 z"/>
<path fill="#000000" stroke="#000000" d="M-0.808234080208653 -5.683593629951349 L-0.5322908242444364 -5.56642236607237 L-0.16204949629747306 -5.717859735080911 z"/>
<path fill="#000000" stroke="#000000" d="M6.2112232376099135 -2.475521134688935 L7.2882719298532335 -2.0261357251035776 L7.510754841312833 -1.5490123107332776 z"/>
<path fill="#000000" stroke="#000000" d="M1.7604630429295334 -5.547379848535055 L1.1287131548350475 -5.649412715758181 L1.5869569018105405 -5.463846244765193 z"/>
<path fill="#000000" stroke="#000000" d="M-2.0701632266359478 -5.479781565289533 L-2.6120609749336947 -5.260604801209318 L-1.9329007307446213 -5.407135223832821 z"/>
<path fill="#000000" stroke="#000000" d="M-7.791916654444474 -0.31111133974240246 L-6.491919987922994 -1.3490627258738974 L-6.491919987922994 -0.8905311827555455 L-7.791916654444474 0.19131438542768797 z"/>
<path fill="#000000" stroke="#000000" d="M-6.050548067494468 3.4233225564700738 L-5.181361296948996 1.657396833481802 L-4.764837166893871 2.008652374082385 z"/>
<path fill="#000000" stroke="#000000" d="M2.9438697268703895 -5.171089106195231 L3.588507294302983 -4.960484038950612 L2.965369272795559 -5.212755563269398 z"/>
<path fill="#000000" stroke="#000000" d="M-6.427400370463335 -0.4342781858769968 L-7.598752844853134 1.1857749403225355 L-7.727350379083378 0.6916584817021902 z"/>
<path fill="#000000" stroke="#000000" d="M4.783480652212983 -4.4195321473356834 L5.323914517105497 -4.093667820705026 L4.052683712081767 -4.715824904894831 z"/>
<path fill="#000000" stroke="#000000" d="M4.783480652212981 4.299735193020965 L3.526550715127423 2.743895883080788 L4.052683712081755 2.476230996265397 z"/>
<path fill="#000000" stroke="#000000" d="M-2.6120609749336947 -5.260604801209318 L-2.0701632266359478 -5.479781565289533 L-2.673366170348974 -5.312261181622371 z"/>
<path fill="#000000" stroke="#000000" d="M7.2882719298532335 -2.0261357251035776 L5.98959537715765 -2.9063998421548263 L7.005396101836828 -2.4869662783966584 z"/>
<path fill="#000000" stroke="#000000" d="M-5.54639073060901 -3.5181342019399153 L-6.8420242987402355 -2.710072275904405 L-6.4731052775923965 -3.139354564833072 z"/>
<path fill="#000000" stroke="#000000" d="M-5.058940297809489 4.141156693890945 L-3.794333869526136 2.614705720706281 L-4.498106512495957 4.449277685624946 z"/>
<path fill="#000000" stroke="#000000" d="M-7.1542481517425305 2.139032857926984 L-5.856297641365724 0.8758480000731951 L-6.842024298740231 2.5902753215896896 z"/>
<path fill="#000000" stroke="#000000" d="M5.820232749611943 -3.734378410910769 L4.538539317559473 -4.412421076721984 L5.323914517105498 -4.093667820705026 z"/>
<path fill="#000000" stroke="#000000" d="M1.128713154835042 3.4098188071287403 L1.58695690181055 5.344049290450472 L0.8859254511937131 5.423775483925591 z"/>
<path fill="#000000" stroke="#000000" d="M0.4857456083117581 -5.706428226527245 L0.8859254511937007 -5.543572438240313 L1.1287131548350475 -5.649412715758181 z"/>
<path fill="#000000" stroke="#000000" d="M-4.498106512495964 -4.569074639939663 L-3.9000000000000012 -4.8398311778827185 L-3.2499999999999982 -5.103074204919187 z"/>
<path fill="#000000" stroke="#000000" d="M-0.8082340802086546 3.4439997213219082 L-1.2377238623587494 5.389559804416287 L-1.4463860707160467 3.3643765544565998 z"/>
<path fill="#000000" stroke="#000000" d="M-4.498106512495964 -4.569074639939663 L-3.2499999999999987 -5.103074204919187 L-3.794333869526133 -4.854299629335723 z"/>
<path fill="#000000" stroke="#000000" d="M-1.2377238623587627 -5.509356758731006 L-0.808234080208653 -5.683593629951349 L-1.4463860707160425 -5.603970463086042 z"/>
<path fill="#000000" stroke="#000000" d="M-2.6733661703489773 3.0726672729929283 L-3.2695768592499723 4.951182733775481 L-3.2500000000000018 2.8634802962897443 z"/>
<path fill="#000000" stroke="#000000" d="M-6.842024298740231 2.5902753215896896 L-5.856297641365724 0.8758480000731951 L-5.546390730609011 1.2785402933104733 z"/>
<path fill="#000000" stroke="#000000" d="M6.664471355462603 2.8078884292006556 L5.370552033053953 1.4711893635099011 L5.708440226906473 1.0799285788262922 z"/>
<path fill="#000000" stroke="#000000" d="M7.799999999999999 -0.0598984771573602 L6.499999999999999 -1.1197969543147204 L7.767683371745943 -0.5618035253078962 z"/>
<path fill="#000000" stroke="#000000" d="M-6.4731052775923965 -3.139354564833072 L-6.050548067494475 -3.5431195107847895 L-5.181361296948995 -3.8969907421112437 z"/>
<path fill="#000000" stroke="#000000" d="M7.288271929853227 1.906338770788869 L5.989595377157638 0.6668059335254043 L6.211223237609905 0.2359272260595161 z"/>
<path fill="#000000" stroke="#000000" d="M5.820232749611938 3.6145814565960523 L4.538539317559459 2.1728271680925517 L4.9792888802733435 1.8366997621166263 z"/>
<path fill="#000000" stroke="#000000" d="M-1.9329007307446213 -5.407135223832821 L-1.2377238623587627 -5.509356758731006 L-1.4463860707160425 -5.603970463086042 z"/>
<path fill="#000000" stroke="#000000" d="M3.5265507151274353 -4.983489791710222 L2.9653692727955585 -5.212755563269399 L4.203409360141485 -4.709271176365567 z"/>
<path fill="#000000" stroke="#000000" d="M2.9653692727955585 -5.212755563269399 L3.5885072943029837 -4.960484038950612 L4.203409360141485 -4.709271176365567 z"/>
<path fill="#000000" stroke="#000000" d="M-6.2990023604890055 -2.254755726127792 L-7.40718965142249 -1.7893663110117843 L-6.108002035108403 -2.6929159993268446 z"/>
<path fill="#000000" stroke="#000000" d="M-3.2695768592499723 4.951182733775481 L-3.899999999999993 4.7200342235680015 L-3.2500000000000018 2.8634802962897443 z"/>
<path fill="#000000" stroke="#000000" d="M-2.673366170348977 3.0726672729929283 L-2.612060974933683 5.1408078468945995 L-3.269576859249972 4.951182733775481 z"/>
<path fill="#000000" stroke="#000000" d="M-4.3009579443795865 2.328815979741441 L-5.058940297809489 4.141156693890945 L-5.577854110568208 3.7982244359421884 z"/>
<path fill="#000000" stroke="#000000" d="M-1.2377238623587494 5.389559804416287 L-1.9329007307446098 5.287338269518103 L-1.446386070716047 3.3643765544566 z"/>
<path fill="#000000" stroke="#000000" d="M-5.058940297809498 -4.2609536482056605 L-4.498106512495964 -4.569074639939663 L-3.7943338695261324 -4.854299629335723 z"/>
<path fill="#000000" stroke="#000000" d="M3.526550715127423 2.743895883080788 L4.783480652212981 4.299735193020965 L4.203409360141484 4.589474222050847 z"/>
<path fill="#000000" stroke="#000000" d="M4.538539317559459 2.1728271680925517 L5.820232749611938 3.6145814565960523 L5.323914517105493 3.9738708663903086 z"/>
<path fill="#000000" stroke="#000000" d="M4.538539317559459 2.1728271680925517 L5.323914517105494 3.9738708663903086 L4.052683712081755 2.476230996265397 z"/>
<path fill="#000000" stroke="#000000" d="M0.8859254511937131 5.423775483925591 L0.17755294327763654 5.458062227947694 L0.4857456083117558 3.466834317897804 z"/>
<path fill="#000000" stroke="#000000" d="M6.371121171015534 -2.03116863123337 L7.671001272743187 -1.0595496301610177 L6.467700039875108 -1.577758506601367 z"/>
<path fill="#000000" stroke="#000000" d="M-7.407189651422487 1.669569356697071 L-6.2990023604890055 0.015161817498350216 L-6.108002035108404 0.45332209069740254 z"/>
<path fill="#000000" stroke="#000000" d="M-6.2990023604890055 -2.254755726127792 L-6.427400370463334 -1.8053157227524452 L-7.598752844853137 -1.3055718946372488 z"/>
<path fill="#000000" stroke="#000000" d="M-5.058940297809498 -4.2609536482056605 L-4.300957944379585 -4.568409888370882 L-5.577854110568215 -3.9180213902569045 z"/>
<path fill="#000000" stroke="#000000" d="M-6.8420242987402355 -2.710072275904406 L-5.856297641365723 -3.1154419087026373 L-7.154248151742533 -2.2588298122416997 z"/>
<path fill="#000000" stroke="#000000" d="M-3.2500000000000018 2.8634802962897448 L-3.899999999999993 4.7200342235680015 L-4.498106512495957 4.449277685624946 z"/>
<path fill="#000000" stroke="#000000" d="M-6.427400370463334 -0.43427818587699685 L-7.727350379083378 0.6916584817021901 L-6.491919987922994 -0.8905311827555454 z"/>
<path fill="#000000" stroke="#000000" d="M2.374716658381559 3.1617497647031163 L2.2748383277476383 5.219544283870195 L1.760463042929525 3.307785939905615 z"/>
<path fill="#000000" stroke="#000000" d="M6.371121171015527 -0.20842527739604552 L6.467700039875106 -0.6618354020280502 L7.671001272743183 0.9397526758463131 z"/>
<path fill="#000000" stroke="#000000" d="M6.371121171015527 -0.20842527739604552 L7.671001272743183 0.9397526758463133 L7.510754841312828 1.4292153564185712 z"/>
<path fill="#000000" stroke="#000000" d="M0.17755294327763654 5.458062227947694 L-0.5322908242444221 5.44662541175765 L-0.16204949629747512 3.4782658264514703 z"/>
<path fill="#000000" stroke="#000000" d="M-3.794333869526136 2.614705720706281 L-5.058940297809489 4.141156693890946 L-4.3009579443795865 2.3288159797414405 z"/>
<path fill="#000000" stroke="#000000" d="M5.370552033053953 1.4711893635099011 L6.268322700548822 3.2248441488412567 L4.9792888802733435 1.8366997621166263 z"/>
<path fill="#000000" stroke="#000000" d="M2.274838327747631 -5.339341238184916 L1.7604630429295334 -5.547379848535055 L1.5869569018105403 -5.463846244765193 z"/>
<path fill="#000000" stroke="#000000" d="M-0.5322908242444221 5.446625411757649 L-0.8082340802086546 3.4439997213219082 L-0.16204949629747512 3.47826582645147 z"/>
<path fill="#000000" stroke="#000000" d="M-6.473105277592392 3.019557610518357 L-5.181361296948996 1.6573968334818021 L-6.050548067494469 3.4233225564700738 z"/>
<path fill="#000000" stroke="#000000" d="M-4.764837166893871 2.008652374082385 L-4.3009579443795865 2.328815979741441 L-5.577854110568207 3.7982244359421884 z"/>
<path fill="#000000" stroke="#000000" d="M4.979288880273356 -4.076293670746057 L5.820232749611943 -3.734378410910769 L6.2683227005488265 -3.3446411031559733 z"/>
<path fill="#000000" stroke="#000000" d="M6.6644713554626085 -2.9276853835153704 L5.370552033053965 -3.7107832721393295 L6.2683227005488265 -3.3446411031559737 z"/>
<path fill="#000000" stroke="#000000" d="M-1.9329007307446096 5.287338269518102 L-2.6120609749336827 5.1408078468945995 L-2.0701632266359513 3.2401876566600913 z"/>
<path fill="#000000" stroke="#000000" d="M5.323914517105498 -4.093667820705026 L4.538539317559473 -4.412421076721984 L4.052683712081767 -4.715824904894831 z"/>
<path fill="#000000" stroke="#000000" d="M-7.407189651422487 1.6695693566970708 L-7.598752844853134 1.1857749403225353 L-6.2990023604890055 0.015161817498350216 z"/>
<path fill="#000000" stroke="#000000" d="M1.1287131548350475 -5.649412715758181 L0.8859254511937007 -5.543572438240313 L1.5869569018105405 -5.463846244765193 z"/>
<path fill="#000000" stroke="#000000" d="M7.510754841312828 1.429215356418571 L7.288271929853227 1.9063387707888688 L6.211223237609905 0.23592722605951613 z"/>
<path fill="#000000" stroke="#000000" d="M5.370552033053965 -3.7107832721393295 L6.6644713554626085 -2.9276853835153704 L5.708440226906485 -3.319522487455717 z"/>
<path fill="#000000" stroke="#000000" d="M2.374716658381559 3.1617497647031163 L2.9653692727955483 2.973161654639962 L2.9438697268703935 5.051292151880508 z"/>
<path fill="#000000" stroke="#000000" d="M7.671001272743187 -1.0595496301610179 L6.371121171015534 -2.03116863123337 L7.510754841312833 -1.5490123107332776 z"/>
<path fill="#000000" stroke="#000000" d="M3.5885072943029854 4.840687084635891 L3.526550715127423 2.7438958830807882 L4.203409360141484 4.589474222050847 z"/>
<path fill="#000000" stroke="#000000" d="M5.989595377157638 0.6668059335254043 L7.288271929853227 1.9063387707888686 L7.005396101836822 2.3671693240819467 z"/>
<path fill="#000000" stroke="#000000" d="M-1.2377238623587494 5.389559804416287 L-0.8082340802086545 3.4439997213219087 L-0.5322908242444221 5.44662541175765 z"/>
<path fill="#000000" stroke="#000000" d="M-3.2499999999999982 -5.103074204919187 L-3.9000000000000012 -4.8398311778827185 L-3.269576859249982 -5.070979688090198 z"/>
<path fill="#000000" stroke="#000000" d="M2.9653692727955483 2.973161654639962 L3.5885072943029854 4.840687084635891 L2.943869726870394 5.051292151880508 z"/>
<path fill="#000000" stroke="#000000" d="M-2.0701632266359478 -5.479781565289533 L-1.9329007307446215 -5.407135223832821 L-1.4463860707160425 -5.603970463086042 z"/>
<path fill="#000000" stroke="#000000" d="M-3.2499999999999987 -5.103074204919187 L-3.269576859249982 -5.070979688090198 L-2.673366170348974 -5.312261181622371 z"/>
<path fill="#000000" stroke="#000000" d="M1.58695690181055 5.344049290450472 L1.128713154835042 3.4098188071287407 L1.7604630429295252 3.307785939905615 z"/>
<path fill="#000000" stroke="#000000" d="M2.2748383277476383 5.219544283870195 L1.5869569018105498 5.344049290450472 L1.7604630429295252 3.307785939905615 z"/>
<path fill="#000000" stroke="#000000" d="M7.005396101836828 -2.486966278396659 L5.989595377157649 -2.9063998421548267 L5.708440226906485 -3.319522487455717 z"/>
<path fill="#000000" stroke="#000000" d="M-5.5778541105682145 -3.9180213902569045 L-4.300957944379585 -4.568409888370883 L-4.764837166893869 -4.248246282711828 z"/>
<path fill="#000000" stroke="#000000" d="M4.538539317559473 -4.412421076721983 L5.820232749611943 -3.7343784109107685 L4.979288880273356 -4.0762936707460575 z"/>
<path fill="#000000" stroke="#000000" d="M-7.1542481517425305 2.139032857926984 L-7.407189651422487 1.669569356697071 L-6.108002035108404 0.4533220906974026 z"/>
<path fill="#000000" stroke="#000000" d="M-7.727350379083379 -0.8114554360169036 L-6.491919987922994 -1.3490627258738974 L-7.791916654444474 -0.3111113397424024 z"/>
<path fill="#000000" stroke="#000000" d="M5.370552033053953 1.4711893635099011 L6.664471355462602 2.8078884292006556 L6.268322700548822 3.2248441488412563 z"/>
<path fill="#000000" stroke="#000000" d="M-7.727350379083379 -0.8114554360169036 L-6.427400370463334 -1.805315722752445 L-6.491919987922994 -1.3490627258738974 z"/>
<path fill="#000000" stroke="#000000" d="M-5.54639073060901 -3.5181342019399153 L-6.4731052775923965 -3.1393545648330723 L-5.181361296948995 -3.8969907421112437 z"/>
<path fill="#000000" stroke="#000000" d="M-7.598752844853134 1.1857749403225355 L-6.427400370463334 -0.43427818587699685 L-6.2990023604890055 0.015161817498350215 z"/>
<path fill="#000000" stroke="#000000" d="M6.467700039875106 -0.6618354020280502 L6.499999999999999 -1.1197969543147204 L7.767683371745941 0.44200657099319407 z"/>
<path fill="#000000" stroke="#000000" d="M5.820232749611944 -3.734378410910768 L5.323914517105499 -4.093667820705025 L4.783480652212984 -4.4195321473356834 L4.203409360141486 -4.709271176365567 L3.588507294302984 -4.960484038950612 L2.9438697268703904 -5.17108910619523 L2.2748383277476316 -5.339341238184916 L1.5869569018105407 -5.463846244765193 L0.8859254511937008 -5.543572438240313 L0.17755294327762144 -5.577859182262413 L-0.5322908242444365 -5.566422366072369 L-1.237723862358763 -5.509356758731006 L-1.9329007307446218 -5.40713522383282 L-2.612060974933695 -5.260604801209317 L-3.2695768592499825 -5.070979688090198 L-3.9000000000000017 -4.839831177882718 L-4.498106512495965 -4.569074639939662 L-5.058940297809499 -4.2609536482056605 L-5.577854110568216 -3.918021390256904 L-6.050548067494476 -3.543119510784789 L-6.473105277592397 -3.1393545648330714 L-6.842024298740236 -2.710072275904405 L-7.154248151742534 -2.258829812241699 L-7.407189651422491 -1.7893663110117843 L-7.598752844853138 -1.3055718946372485 L-7.72735037908338 -0.8114554360169035 L-7.791916654444475 -0.31111133974240246 L-7.791916654444475 0.19131438542768794 L-7.727350379083379 0.6916584817021902 L-7.598752844853135 1.1857749403225355 L-7.407189651422488 1.669569356697071 L-7.154248151742531 2.1390328579269844 L-6.842024298740232 2.5902753215896896 L-6.473105277592393 3.0195576105183566 L-6.05054806749447 3.423322556470074 L-5.577854110568209 3.7982244359421884 L-5.05894029780949 4.141156693890946 L-4.498106512495958 4.449277685624946 L-3.8999999999999932 4.7200342235680015 L-3.2695768592499728 4.951182733775481 L-2.612060974933683 5.1408078468945995 L-1.93290073074461 5.287338269518102 L-1.2377238623587496 5.389559804416287 L-0.5322908242444222 5.446625411757649 L0.17755294327763657 5.458062227947694 L0.8859254511937132 5.423775483925591 L1.5869569018105503 5.344049290450472 L2.2748383277476387 5.219544283870195 L2.9438697268703944 5.051292151880508 L3.588507294302986 4.840687084635892 L4.203409360141485 4.589474222050847 L4.783480652212982 4.299735193020965 L5.323914517105495 3.9738708663903086 L5.820232749611939 3.614581456596052 L6.268322700548823 3.2248441488412567 L6.664471355462604 2.8078884292006556 L7.005396101836823 2.3671693240819462 L7.288271929853228 1.906338770788869 L7.510754841312829 1.4292153564185712 L7.671001272743184 0.9397526758463132 L7.7676833717459415 0.44200657099319407 L7.8 -0.0598984771573603 L7.767683371745944 -0.5618035253078961 L7.6710012727431875 -1.0595496301610179 L7.510754841312834 -1.5490123107332776 L7.288271929853234 -2.0261357251035776 L7.005396101836829 -2.4869662783966584 L6.664471355462609 -2.92768538351537 L6.268322700548827 -3.3446411031559733 M-1.435062871369087 -2.5114620589861674 L-1.0402451369696482 -2.606298328333807 L-0.9705714191344532 -2.623034140571626 L-0.5616379505715827 -2.680592842358258 L-0.4894732208251939 -2.6907502603206046 L-0.0734209831237795 -2.7100465492003742 L-4.904815075324639e-16 -2.7134517766497455 L0.14303336755597731 -2.706817962600205 L0.41605223770141386 -2.6941554877699763 L0.4894732208251929 -2.6907502603206046 L0.8984066893880633 -2.6331915585339725 L0.9705714191344523 -2.623034140571626 L1.118784932259365 -2.587432860722698 L1.365389153533891 -2.5281978712239868 L1.435062871369086 -2.511462058986168 L1.8090094307053621 -2.3809708969396404 L1.8208589087884697 -2.3768359420213385 L1.8749999999999993 -2.357943044813782 L2.2216770549652964 -2.194029730029969 L2.282855358782702 -2.1651038509504725 L2.3686267931530973 -2.1118774430209744 L2.5963311688495248 -1.97057298569068 L2.6516504294495524 -1.936244009468364 L2.80894446444854 -1.8093266980998124 L2.926561336595744 -1.7144240707713325 L2.975075026092131 -1.6752793757071507 L3.1604893618458028 -1.4789219768556703 L3.206717228476717 -1.4299657642240933 L3.247595264191644 -1.3866751269035535 L3.4279299953039435 -1.1279128792330322 L3.4320052995084724 -1.1220652265407263 L3.464548246917325 -1.0753693617708155 L3.5985708083340033 -0.795990721287152 L3.614479774183674 -0.7628274597914739 L3.622221848584006 -0.746688608260623 L3.7035637729166213 -0.45732147365319065 L3.717918230151789 -0.40625668519305547 L3.7194245473071197 -0.3899943245713566 L3.745187734522768 -0.11185220836271442 L3.75 -0.05989847715736012 L3.745876561273313 -0.015381392997806137 L3.722730495629021 0.23450599967297905 L3.7179182301517892 0.28645973087833304 L3.6984778568780783 0.3556172429001746 L3.6365763058191742 0.5758268654857649 L3.622221848584007 0.6268916539459 L3.5787412962114558 0.7175296590766573 L3.488199287167328 0.9062702944295652 L3.464548246917326 0.9555724074560944 L3.3883426212875585 1.0649198351616158 L3.280138211600497 1.220182307818921 L3.2475952641916455 1.2668781725888316 L3.1291247498902726 1.392340758500849 L3.015953061807058 1.512191784071891 L2.975075026092131 1.5554824213924308 L2.803065395026685 1.6942734435978397 L2.7001641189459393 1.7773023600894617 L2.651650429449553 1.8164470551536438 L2.4122038013074234 1.9650382965196007 L2.338174619382729 2.0109779204134366 L2.2828553587827014 2.045306896635753 L1.958515206657978 2.1986590400522577 L1.9361783038174032 2.209220211419567 L1.8749999999999978 2.2381460904990633 L1.5010534406637202 2.3686372525455908 L1.4437105194574575 2.3886474498225194 L1.4350628713690832 2.3916651046714485 L1.0402451369696446 2.4865013740190878 L0.9705714191344497 2.5032371862569067 L0.85188425476943 2.519942786616778 L0.5616379505715782 2.560795888043539 L0.4894732208251891 2.5709533060058853 L0.19003835744978323 2.5848409410208726 L0.07342098312377514 2.5902495948856545 L-3.789911623555727e-15 2.5936548223350253 L-0.4160522377014177 2.574358533455256 L-0.4894732208251966 2.5709533060058845 L-0.5611716884673233 2.560861515935302 L-0.8984066893880666 2.5133946042192523 L-0.9705714191344554 2.5032371862569054 L-1.3653891535338947 2.4084009169092653 L-1.43506287136909 2.3916651046714463 L-1.5109288560827792 2.365191160045068 L-1.809009430705366 2.2611739426249193 L-1.8750000000000029 2.2381460904990615 L-2.221677054965299 2.0742327757152474 L-2.2828553587827045 2.045306896635751 L-2.596331168849527 1.8507760313759585 L-2.6516504294495546 1.8164470551536422 L-2.926561336595746 1.5946271164566115 L-2.975075026092133 1.5554824213924296 L-3.135417767339949 1.3856763302498045 L-3.206717228476718 1.3101688099093716 L-3.247595264191645 1.266878172588832 L-3.4320052995084733 1.0022682722260055 L-3.4530523112782836 0.9720679218070251 L-3.4645482469173254 0.955572407456095 L-3.588300080250412 0.6976037595769621 L-3.598570808334004 0.6761937669724315 L-3.6222218485840063 0.6268916539459028 L-3.6648438584876852 0.47526739648913613 L-3.7035637729166213 0.3375245193384709 L-3.717918230151789 0.2864597308783359 L-3.7185488472051 0.2796515219305402 L-3.734131914418822 0.11141506672931446 L-3.745187734522768 -0.007944745952004712 L-3.748879981820775 -0.04780664147126342 L-3.75 -0.059898477157358944 L-3.7377570023232143 -0.192075185499187 L-3.724857384686889 -0.3313408329370399 L-3.722730495629021 -0.3543029539877 L-3.7179182301517892 -0.4062566851930543 L-3.701482179940712 -0.464726567641314 L-3.6652507754026233 -0.5936167777022237 L-3.6365763058191733 -0.6956238198004866 L-3.629197610588095 -0.7218729147619949 L-3.6222218485840063 -0.7466886082606218 L-3.5737094392930806 -0.847815842444337 L-3.512681981623077 -0.9750314990904736 L-3.4881992871673275 -1.0260672487442857 L-3.464548246917326 -1.0753693617708144 L-3.44425690077834 -1.104485407819175 L-3.3518039132958632 -1.2371461698213797 L-3.280138211600497 -1.3399792621336417 L-3.2553473212603357 -1.3755517027090447 L-3.247595264191645 -1.3866751269035524 L-3.1194536925374385 -1.522379551226968 L-3.0159530618070587 -1.6319887383866105 L-2.975075026092132 -1.67527937570715 L-2.9691212859625318 -1.6800833257732841 L-2.7498295210844836 -1.8570253261725078 L-2.7001641189459393 -1.8970993144041814 L-2.651650429449553 -1.9362440094683635 L-2.4472877108713145 -2.063063544485734 L-2.3381746193827295 -2.130774874728156 L-2.2828553587827023 -2.165103850950472 L-1.9361783038174052 -2.3290171657342857 L-1.9311473290068903 -2.3313958745238477 L-1.875 -2.357943044813782 L-1.5010534406637237 -2.4884342068603096 z"/>
<path fill="#000000" stroke="#000000" d="M6.467700039875106 -0.6618354020280502 L7.767683371745941 0.44200657099319407 L7.671001272743183 0.9397526758463131 z"/>
<path fill="#000000" stroke="#000000" d="M6.499999999999999 -1.1197969543147204 L7.799999999999999 -0.05989847715736028 L7.767683371745941 0.442006570993194 z"/>
<path fill="#000000" stroke="#000000" d="M5.370552033053954 1.4711893635099011 L4.979288880273344 1.8366997621166266 L4.53853931755946 2.1728271680925517 L4.052683712081756 2.4762309962653966 L3.5265507151274234 2.743895883080788 L2.9653692727955487 2.9731616546399615 L2.3747166583815593 3.161749764703116 L1.7604630429295254 3.307785939905615 L1.1287131548350422 3.4098188071287403 L0.48574560831175584 3.4668343178978036 L-0.16204949629747514 3.47826582645147 L-0.8082340802086547 3.4439997213219087 L-1.4463860707160472 3.3643765544566 L-2.0701632266359518 3.240187656660091 L-2.6733661703489777 3.0726672729929283 L-3.250000000000002 2.8634802962897448 L-3.7943338695261364 2.614705720706281 L-4.300957944379587 2.3288159797414405 L-4.764837166893872 2.0086523740823856 L-5.181361296948997 1.657396833481802 L-5.546390730609012 1.278540293310473 L-5.856297641365725 0.8758480000731951 L-6.108002035108405 0.4533220906974026 L-6.299002360489006 0.015161817498350215 L-6.427400370463335 -0.4342781858769968 L-6.491919987922995 -0.8905311827555455 L-6.491919987922995 -1.3490627258738976 L-6.427400370463335 -1.8053157227524452 L-6.299002360489006 -2.254755726127792 L-6.108002035108404 -2.692915999326844 L-5.856297641365724 -3.115441908702637 L-5.546390730609011 -3.5181342019399144 L-5.181361296948996 -3.8969907421112433 L-4.76483716689387 -4.248246282711828 L-4.300957944379586 -4.568409888370882 L-3.7943338695261333 -4.854299629335722 L-3.249999999999999 -5.103074204919187 L-2.6733661703489746 -5.31226118162237 L-2.070163226635948 -5.479781565289532 L-1.4463860707160427 -5.603970463086041 L-0.8082340802086531 -5.683593629951348 L-0.1620494962974731 -5.71785973508091 L0.48574560831175817 -5.706428226527244 L1.1287131548350477 -5.64941271575818 L1.7604630429295336 -5.547379848535055 L2.374716658381568 -5.401343673332554 L2.9653692727955594 -5.212755563269398 L3.5265507151274362 -4.983489791710222 L4.052683712081768 -4.715824904894831 L4.538539317559474 -4.412421076721983 L4.979288880273357 -4.076293670746057 L5.370552033053967 -3.7107832721393286 L5.708440226906486 -3.319522487455717 L5.98959537715765 -2.906399842154826 L6.211223237609914 -2.4755211346889348 L6.371121171015535 -2.03116863123337 L6.467700039875109 -1.5777585066013673 L6.5 -1.1197969543147206 L6.4677000398751066 -0.6618354020280502 L6.3711211710155276 -0.20842527739604552 L6.2112232376099055 0.2359272260595161 L5.989595377157639 0.6668059335254042 L5.708440226906474 1.0799285788262922 M-2.7486778084423262 -2.9178530964973595 L-2.810755938909257 -2.8677635338912526 L-2.958572574026068 -2.7484933409389734 L-2.975075026092132 -2.7351778528645103 L-3.0568310975219855 -2.648596578223431 L-3.0656768952047946 -2.6392287059027577 L-3.162473270472806 -2.5367194560725324 L-3.247595264191645 -2.4465736040609123 L-3.2523904278430043 -2.439693025279884 L-3.3126811590093492 -2.3531818745210913 L-3.318478657777149 -2.344863045403871 L-3.382671707612513 -2.252752458842038 L-3.4453570400473765 -2.162805295493242 L-3.464548246917326 -2.1352678389281747 L-3.495044474796143 -2.071696492472744 L-3.5118503274173296 -2.0366636128751168 L-3.539258553234141 -1.9795294051280838 L-3.5836795850199947 -1.8869309102326643 L-3.6222218485840063 -1.806587085417982 L-3.6261614863929372 -1.792572151378557 L-3.650930763054341 -1.7044575084977118 L-3.6548028397057784 -1.6906829176603324 L-3.68443136978569 -1.5852818846481789 L-3.71525486366482 -1.4756298672466535 L-3.7179182301517892 -1.4661551623504145 L-3.7275427611062524 -1.362247699939706 L-3.72865479943875 -1.3502420155297359 L-3.7411904775693348 -1.2149054978013125 L-3.75 -1.1197969543147193 L-3.7446225272114697 -1.0617411847107279 L-3.7403754690455364 -1.0158894919040107 L-3.7275594925137705 -0.8775268427493098 L-3.717918230151789 -0.7734387462790243 L-3.689209315681454 -0.6713091693587543 L-3.682516387441702 -0.647499633467388 L-3.6222218485840063 -0.4330068232114575 L-3.5749197680840017 -0.33440259715839976 L-3.568102392956934 -0.32019134067639793 L-3.4645482469173254 -0.10432606970126525 L-3.399462352099621 -0.010934340161444104 L-3.247595264191645 0.20697969543147185 L-3.165839192761791 0.2935609700725511 L-2.975075026092133 0.49558394423506935 L-2.878047647099359 0.5738733343634331 L-2.6516504294495546 0.756548577996282 L-2.5410119082494993 0.8252065304409146 L-2.2828553587827045 0.9854084194783909 L-2.1604987511478937 1.043260177637384 L-2.055385911306701 1.092958863367926 L-1.8750000000000029 1.1782476133417015 L-1.743018861410729 1.2243033175934168 L-1.43506287136909 1.3317666275140865 L-1.2958076385225294 1.3652161046263371 L-1.2957154356986995 1.365238251989724 L-0.9705714191344554 1.443338709099545 L-0.8262419596416778 1.463653545024239 L-0.6195149892039861 1.4927510314307537 L-0.4894732208251966 1.5110548288485244 L-0.34263125457763877 1.5178652837472668 L-3.789911623555727e-15 1.5337563451776652 L0.014942503703967196 1.5330633195382604 L0.14684196624755408 1.5269458902789232 L0.4894732208251891 1.5110548288485255 L0.5992760412632014 1.4955997284892086 L0.6338026803179673 1.4907399929238319 L0.9705714191344497 1.4433387090995464 L1.1099188548048395 1.409867084623909 L1.1468173039012277 1.401003979063724 L1.4350628713690832 1.3317666275140885 L1.5670440099583574 1.285710923262373 L1.6533498146430776 1.2555939333784196 L1.8749999999999978 1.1782476133417032 L1.9973566076348088 1.1203958551827102 L2.114532375653569 1.064993663796791 L2.2828553587827014 0.9854084194783927 L2.3934938799827568 0.91675046703376 L2.526089684870719 0.8344666804501143 L2.651650429449553 0.7565485779962836 L2.7486778084423262 0.6782591878679197 L2.883943731703402 0.5691159053512558 L2.975075026092131 0.4955839442350705 L3.056831097521985 0.4090026695939908 L3.184306488901814 0.2740037431777957 L3.2475952641916455 0.20697969543147138 L3.3126811590093492 0.11358796589165021 L3.423744818561638 -0.045777243477626225 L3.464548246917326 -0.10432606970126586 L3.51185032741733 -0.2029302957543242 L3.599223187654121 -0.3850646367943552 L3.622221848584007 -0.4330068232114603 L3.6509307630543417 -0.5351364001317304 L3.7081265315914953 -0.7386055925446028 L3.7179182301517892 -0.7734387462790273 L3.7275427611062524 -0.8773462086897351 L3.748263274730058 -1.101047083120165 L3.75 -1.1197969543147204 L3.7403754690455364 -1.223704416725429 L3.717918230151789 -1.4661551623504157 L3.7176950071166686 -1.4669492597433782 L3.689209315681454 -1.568284739270686 L3.622221848584006 -1.8065870854179833 L3.6104497447598427 -1.831126792220049 L3.5749197680840012 -1.905191311471041 L3.464548246917325 -2.135267838928176 L3.428342581039499 -2.1872193372511473 L3.3994623520996203 -2.2286595684679975 L3.247595264191644 -2.4465736040609136 L3.1695770194481905 -2.5291964473190265 L3.16583919276179 -2.533154878701993 L2.975075026092131 -2.7351778528645108 L2.8780476470993572 -2.813467242992875 L2.8319317681418656 -2.8506771942076177 L2.6516504294495524 -2.9961424866257236 L2.541011908249497 -3.064800439070357 L2.412211571516146 -3.1447289061031087 L2.282855358782702 -3.225002328107833 L2.160498751147891 -3.2828540862668256 L1.9053270860982037 -3.4035024904751343 L1.8749999999999993 -3.417841521971143 L1.7430188614107252 -3.463897226222858 L1.435062871369086 -3.5713605361435286 L1.2957154356986957 -3.6048321606191656 L1.263229275753531 -3.612635422596028 L0.9705714191344523 -3.6829326177289863 L0.8262419596416745 -3.7032474536536797 L0.4894732208251929 -3.7506487374779653 L0.45188347572816906 -3.75239213052956 L0.3426312545776349 -3.7574591923767073 L-4.904815075324639e-16 -3.7733502538071058 L-0.1468419662475585 -3.7665397989083633 L-0.4894732208251939 -3.7506487374779653 L-0.6338026803179716 -3.7303339015532715 L-0.9705714191344532 -3.6829326177289863 L-1.1099188548048433 -3.649460993253349 L-1.435062871369087 -3.5713605361435277 L-1.5670440099583607 -3.525304831891812 L-1.875 -3.4178415219711424 L-1.9973566076348106 -3.3599897638121496 L-2.007540532821529 -3.3551746746363387 L-2.2828553587827023 -3.2250023281078324 L-2.393420673152435 -3.156389804967753 L-2.393493879982757 -3.1563443756632 L-2.645507291218013 -2.999954678690359 L-2.651650429449553 -2.9961424866257236 z"/>
<path fill="#000000" stroke="#000000" d="M3.722730495629021 0.23450599967297908 L3.717918230151789 0.28645973087833304 L3.717918230151789 1.346358208035693 L3.7499999999999996 1.0000000000000002 L3.7499999999999996 -0.05989847715736012 z"/>
<path fill="#000000" stroke="#000000" d="M3.75 -0.05989847715736012 L3.75 1.0000000000000002 L3.717918230151789 0.6536417919643047 L3.717918230151789 -0.40625668519305547 L3.745187734522768 -0.11185220836271441 z"/>
<path fill="#000000" stroke="#000000" d="M3.206717228476717 -1.429965764224093 L3.247595264191644 -1.3866751269035538 L3.2475952641916446 -0.32677664974619336 L2.975075026092131 -0.6153808985497905 L2.975075026092131 -1.6752793757071507 z"/>
<path fill="#000000" stroke="#000000" d="M3.464548246917325 -1.0753693617708155 L3.464548246917325 -0.01547088461345547 L3.247595264191644 -0.32677664974619336 L3.247595264191644 -1.3866751269035535 L3.432005299508473 -1.1220652265407265 z"/>
<path fill="#000000" stroke="#000000" d="M3.717918230151789 -0.40625668519305547 L3.7179182301517884 0.6536417919643047 L3.622221848584006 0.31320986889673724 L3.622221848584006 -0.746688608260623 L3.7035637729166213 -0.4573214736531906 z"/>
<path fill="#000000" stroke="#000000" d="M3.622221848584006 -0.746688608260623 L3.622221848584006 0.31320986889673724 L3.464548246917325 -0.015470884613455485 L3.464548246917325 -1.0753693617708155 L3.598570808334004 -0.795990721287152 z"/>
<path fill="#000000" stroke="#000000" d="M2.5963311688495248 -1.9705729856906802 L2.651650429449553 -1.9362440094683633 L2.6516504294495524 -0.8763455323110034 L2.2828553587827023 -1.1052053737931118 L2.282855358782702 -2.1651038509504725 z"/>
<path fill="#000000" stroke="#000000" d="M2.2828553587827014 -1.1052053737931136 L1.8749999999999991 -1.2980445676564234 L1.8749999999999991 -2.3579430448137835 L2.221677054965296 -2.19402973002997 L2.2828553587827014 -2.1651038509504734 z"/>
<path fill="#000000" stroke="#000000" d="M2.9750750260921315 -1.6752793757071507 L2.9750750260921315 -0.6153808985497904 L2.651650429449553 -0.8763455323110033 L2.651650429449553 -1.9362440094683635 L2.926561336595744 -1.7144240707713327 z"/>
<path fill="#000000" stroke="#000000" d="M0.8984066893880632 -2.6331915585339742 L0.9705714191344522 -2.6230341405716273 L0.9705714191344522 -1.5631356634142666 L0.48947322082519285 -1.6308517831632456 L0.48947322082519285 -2.6907502603206064 z"/>
<path fill="#000000" stroke="#000000" d="M1.874999999999999 -2.3579430448137835 L1.874999999999999 -1.2980445676564225 L1.4350628713690858 -1.4515635818288077 L1.4350628713690858 -2.5114620589861687 L1.8090094307053621 -2.3809708969396413 z"/>
<path fill="#000000" stroke="#000000" d="M1.4350628713690858 -2.5114620589861683 L1.4350628713690858 -1.4515635818288086 L0.9705714191344522 -1.5631356634142666 L0.9705714191344522 -2.623034140571626 L1.3653891535338907 -2.5281978712239868 z"/>
<path fill="#000000" stroke="#000000" d="M0.4894732208251928 -2.6907502603206064 L0.4894732208251928 -1.630851783163246 L-4.904815075324638e-16 -1.6535532994923863 L-4.904815075324638e-16 -2.713451776649747 L0.41605223770141386 -2.694155487769977 z"/>
<path fill="#000000" stroke="#000000" d="M-0.07342098312377948 -2.710046549200375 L-4.904815075324638e-16 -2.7134517766497463 L-4.904815075324638e-16 -1.653553299492386 L-0.4894732208251938 -1.6308517831632456 L-0.4894732208251938 -2.690750260320606 z"/>
<path fill="#000000" stroke="#000000" d="M-1.4350628713690867 -1.4515635818288084 L-1.8749999999999998 -1.298044567656423 L-1.8749999999999998 -2.3579430448137826 L-1.5010534406637237 -2.48843420686031 L-1.4350628713690867 -2.511462058986168 z"/>
<path fill="#000000" stroke="#000000" d="M-0.4894732208251938 -1.6308517831632463 L-0.9705714191344531 -1.5631356634142672 L-0.9705714191344531 -2.6230341405716278 L-0.5616379505715827 -2.68059284235826 L-0.4894732208251938 -2.690750260320607 z"/>
<path fill="#000000" stroke="#000000" d="M-0.970571419134453 -2.623034140571627 L-0.970571419134453 -1.5631356634142661 L-1.4350628713690867 -1.4515635818288075 L-1.4350628713690867 -2.5114620589861687 L-1.0402451369696482 -2.6062983283338084 z"/>
<path fill="#000000" stroke="#000000" d="M-1.8749999999999998 -1.2980445676564232 L-2.282855358782702 -1.1052053737931131 L-2.282855358782702 -2.1651038509504734 L-1.9361783038174052 -2.3290171657342866 L-1.8749999999999998 -2.3579430448137835 z"/>
<path fill="#000000" stroke="#000000" d="M-2.2828553587827023 -1.105205373793112 L-2.6516504294495533 -0.8763455323110032 L-2.651650429449553 -1.9362440094683637 L-2.33817461938273 -2.1307748747281563 L-2.2828553587827027 -2.1651038509504716 z"/>
<path fill="#000000" stroke="#000000" d="M-2.6516504294495533 -0.8763455323110029 L-2.9750750260921324 -0.6153808985497897 L-2.9750750260921324 -1.67527937570715 L-2.7001641189459398 -1.8970993144041812 L-2.651650429449553 -1.9362440094683637 z"/>
<path fill="#000000" stroke="#000000" d="M-2.975075026092132 -0.6153808985497897 L-3.247595264191645 -0.32677664974619197 L-3.247595264191645 -1.3866751269035522 L-3.0159530618070587 -1.6319887383866103 L-2.975075026092132 -1.67527937570715 z"/>
<path fill="#000000" stroke="#000000" d="M-3.280138211600497 -1.3399792621336417 L-3.247595264191645 -1.3866751269035522 L-3.247595264191645 -0.3267766497461921 L-3.464548246917326 -0.01547088461345441 L-3.464548246917326 -1.0753693617708144 z"/>
<path fill="#000000" stroke="#000000" d="M-3.464548246917326 -0.0154708846134544 L-3.6222218485840063 0.3132098688967385 L-3.6222218485840063 -0.7466886082606218 L-3.488199287167328 -1.0260672487442857 L-3.464548246917326 -1.0753693617708144 z"/>
<path fill="#000000" stroke="#000000" d="M-3.7101671926160584 -0.4338303569539729 L-3.6365763058191733 -0.6956238198004866 L-3.6222218485840063 -0.7466886082606218 L-3.6222218485840063 0.3132098688967385 L-3.7101671926160584 0.6260681202033874 L-3.7179182301517892 0.6536417919643059 L-3.7179182301517892 -0.4062566851930543 z"/>
<path fill="#000000" stroke="#000000" d="M-3.7179182301517892 0.6536417919643059 L-3.75 1.0000000000000013 L-3.75 -0.05989847715735894 L-3.722730495629021 -0.3543029539877 L-3.7179182301517892 -0.40625668519305436 z"/>
<path fill="#000000" stroke="#000000" d="M-3.7499999999999996 1.000000000000001 L-3.717918230151789 1.3463582080356962 L-3.7179182301517884 0.28645973087833587 L-3.745187734522768 -0.00794474595200471 L-3.7499999999999996 -0.059898477157358944 z"/>
<path fill="#000000" stroke="#000000" d="M-3.464548246917325 0.955572407456095 L-3.464548246917325 2.015470884613455 L-3.247595264191645 2.326776649746192 L-3.2475952641916446 1.266878172588832 L-3.432005299508473 1.0022682722260055 z"/>
<path fill="#000000" stroke="#000000" d="M-3.622221848584006 0.6268916539459027 L-3.7035637729166213 0.33752451933847094 L-3.7179182301517884 0.28645973087833587 L-3.717918230151789 1.346358208035696 L-3.622221848584006 1.6867901311032631 z"/>
<path fill="#000000" stroke="#000000" d="M-3.622221848584006 0.6268916539459028 L-3.622221848584006 1.6867901311032631 L-3.464548246917325 2.015470884613455 L-3.464548246917325 0.9555724074560951 L-3.598570808334004 0.6761937669724315 z"/>
<path fill="#000000" stroke="#000000" d="M-3.2475952641916446 1.266878172588832 L-3.247595264191645 2.326776649746192 L-2.9750750260921324 2.6153808985497897 L-2.9750750260921324 1.5554824213924294 L-3.206717228476718 1.3101688099093718 z"/>
<path fill="#000000" stroke="#000000" d="M-2.9750750260921324 2.6153808985497897 L-2.651650429449554 2.8763455323110025 L-2.651650429449554 1.8164470551536422 L-2.926561336595746 1.5946271164566113 L-2.9750750260921324 1.5554824213924294 z"/>
<path fill="#000000" stroke="#000000" d="M-2.651650429449554 1.8164470551536422 L-2.651650429449554 2.8763455323110025 L-2.282855358782704 3.1052053737931113 L-2.282855358782704 2.045306896635751 L-2.596331168849527 1.8507760313759585 z"/>
<path fill="#000000" stroke="#000000" d="M-1.4350628713690898 3.451563581828807 L-0.9705714191344553 3.5631356634142657 L-0.9705714191344553 2.5032371862569054 L-1.3653891535338947 2.4084009169092657 L-1.4350628713690898 2.3916651046714468 z"/>
<path fill="#000000" stroke="#000000" d="M-0.48947322082519656 2.570953306005885 L-0.8984066893880664 2.5133946042192523 L-0.9705714191344553 2.5032371862569054 L-0.9705714191344553 3.5631356634142657 L-0.48947322082519656 3.6308517831632448 z"/>
<path fill="#000000" stroke="#000000" d="M-1.4350628713690896 2.3916651046714468 L-1.8090094307053657 2.2611739426249198 L-1.8750000000000027 2.238146090499062 L-1.8750000000000027 3.2980445676564223 L-1.4350628713690896 3.451563581828807 z"/>
<path fill="#000000" stroke="#000000" d="M-2.282855358782704 2.045306896635751 L-2.282855358782704 3.1052053737931113 L-1.8750000000000027 3.298044567656422 L-1.8750000000000027 2.2381460904990615 L-2.2216770549652987 2.074232775715248 z"/>
<path fill="#000000" stroke="#000000" d="M0.9705714191344494 2.5032371862569067 L0.5616379505715781 2.560795888043539 L0.48947322082518907 2.570953306005886 L0.48947322082518907 3.630851783163246 L0.9705714191344494 3.563135663414267 z"/>
<path fill="#000000" stroke="#000000" d="M0.9705714191344494 2.5032371862569067 L0.9705714191344494 3.563135663414267 L1.4350628713690827 3.451563581828809 L1.4350628713690827 2.3916651046714485 L1.0402451369696444 2.486501374019088 z"/>
<path fill="#000000" stroke="#000000" d="M-0.4894732208251965 2.570953306005885 L-0.4894732208251965 3.630851783163245 L-3.7899116235557264e-15 3.653553299492386 L-3.7899116235557264e-15 2.5936548223350258 L-0.41605223770141764 2.574358533455256 z"/>
<path fill="#000000" stroke="#000000" d="M-3.7899116235557264e-15 2.5936548223350253 L-3.7899116235557264e-15 3.653553299492386 L0.48947322082518907 3.630851783163246 L0.48947322082518907 2.570953306005886 L0.07342098312377514 2.5902495948856545 z"/>
<path fill="#000000" stroke="#000000" d="M3.015953061807058 1.512191784071891 L2.9750750260921306 1.5554824213924308 L2.9750750260921306 2.615380898549791 L3.247595264191645 2.3267766497461917 L3.247595264191645 1.2668781725888316 z"/>
<path fill="#000000" stroke="#000000" d="M2.6516504294495524 1.8164470551536438 L2.5682624642589365 1.8681943750419825 L2.3381746193827286 2.010977920413436 L2.282855358782701 2.045306896635753 L2.2828553587827014 3.105205373793113 L2.568262464258937 2.9280928521993426 L2.651650429449553 2.876345532311004 z"/>
<path fill="#000000" stroke="#000000" d="M2.6516504294495524 1.8164470551536438 L2.651650429449553 2.876345532311004 L2.9750750260921306 2.615380898549791 L2.9750750260921306 1.5554824213924308 L2.7001641189459393 1.777302360089462 z"/>
<path fill="#000000" stroke="#000000" d="M1.435062871369083 2.3916651046714485 L1.435062871369083 3.451563581828809 L1.8749999999999976 3.298044567656424 L1.8749999999999976 2.2381460904990633 L1.5010534406637202 2.3686372525455908 z"/>
<path fill="#000000" stroke="#000000" d="M3.247595264191645 1.2668781725888316 L3.247595264191645 2.326776649746192 L3.4645482469173254 2.0154708846134546 L3.4645482469173254 0.9555724074560944 L3.280138211600497 1.2201823078189211 z"/>
<path fill="#000000" stroke="#000000" d="M1.8749999999999976 2.2381460904990638 L1.8749999999999976 3.298044567656424 L2.282855358782701 3.1052053737931136 L2.282855358782701 2.0453068966357533 L1.9361783038174032 2.209220211419567 z"/>
<path fill="#000000" stroke="#000000" d="M3.6365763058191742 0.5758268654857649 L3.6222218485840068 0.6268916539459 L3.6222218485840068 1.6867901311032603 L3.7179182301517892 1.3463582080356933 L3.717918230151789 0.28645973087833304 z"/>
<path fill="#000000" stroke="#000000" d="M3.4645482469173254 0.9555724074560944 L3.464548246917326 2.015470884613454 L3.6222218485840068 1.6867901311032603 L3.6222218485840068 0.6268916539459 L3.4881992871673275 0.9062702944295653 z"/>
<path fill="#000000" stroke="#000000" d="M7.767683371745944 0.4980949518494641 L7.799999999999999 1 L7.8 -0.05989847715736029 L7.767683371745944 -0.5618035253078961 z"/>
<path fill="#000000" stroke="#000000" d="M7.6710012727431875 0.00034884699634243264 L7.767683371745944 0.4980949518494642 L7.767683371745944 -0.561803525307896 L7.6710012727431875 -1.0595496301610179 z"/>
<path fill="#000000" stroke="#000000" d="M5.820232749611945 -2.6744799337534078 L6.268322700548828 -2.284742625998613 L6.268322700548827 -3.3446411031559737 L5.820232749611944 -3.7343784109107685 z"/>
<path fill="#000000" stroke="#000000" d="M7.288271929853234 -0.9662372479462176 L7.510754841312834 -0.4891138335759173 L7.510754841312834 -1.5490123107332776 L7.288271929853234 -2.0261357251035776 z"/>
<path fill="#000000" stroke="#000000" d="M7.005396101836829 -1.4270678012392983 L7.288271929853234 -0.9662372479462175 L7.288271929853234 -2.0261357251035776 L7.005396101836829 -2.4869662783966584 z"/>
<path fill="#000000" stroke="#000000" d="M6.664471355462609 -1.8677869063580097 L7.005396101836829 -1.4270678012392983 L7.005396101836829 -2.4869662783966584 L6.664471355462609 -2.92768538351537 z"/>
<path fill="#000000" stroke="#000000" d="M6.268322700548827 -2.2847426259986126 L6.664471355462609 -1.8677869063580095 L6.664471355462609 -2.92768538351537 L6.268322700548827 -3.3446411031559733 z"/>
<path fill="#000000" stroke="#000000" d="M7.510754841312834 -0.48911383357591726 L7.6710012727431875 0.00034884699634243123 L7.6710012727431875 -1.0595496301610179 L7.510754841312834 -1.5490123107332776 z"/>
<path fill="#000000" stroke="#000000" d="M5.3239145171055 -3.033769343547664 L5.820232749611944 -2.674479933753408 L5.820232749611944 -3.7343784109107685 L5.323914517105499 -4.093667820705026 z"/>
<path fill="#000000" stroke="#000000" d="M4.783480652212985 -3.3596336701783227 L5.3239145171055 -3.0337693435476645 L5.323914517105499 -4.093667820705025 L4.783480652212985 -4.419532147335683 z"/>
<path fill="#000000" stroke="#000000" d="M4.203409360141485 -3.649372699208208 L4.783480652212983 -3.3596336701783245 L4.783480652212983 -4.4195321473356834 L4.203409360141485 -4.709271176365567 z"/>
<path fill="#000000" stroke="#000000" d="M3.588507294302983 -3.9005855617932523 L4.203409360141485 -3.6493726992082074 L4.203409360141485 -4.709271176365567 L3.588507294302983 -4.960484038950612 z"/>
<path fill="#000000" stroke="#000000" d="M2.94386972687039 -4.111190629037871 L3.5885072943029837 -3.900585561793253 L3.5885072943029837 -4.960484038950613 L2.94386972687039 -5.1710891061952315 z"/>
<path fill="#000000" stroke="#000000" d="M2.274838327747631 -4.279442761027559 L2.94386972687039 -4.111190629037872 L2.94386972687039 -5.171089106195231 L2.274838327747631 -5.339341238184916 z"/>
<path fill="#000000" stroke="#000000" d="M1.5869569018105405 -4.403947767607834 L2.274838327747631 -4.279442761027557 L2.274838327747631 -5.339341238184917 L1.5869569018105405 -5.463846244765195 z"/>
<path fill="#000000" stroke="#000000" d="M0.8859254511937007 -4.483673961082953 L1.5869569018105405 -4.403947767607834 L1.5869569018105405 -5.463846244765193 L0.8859254511937007 -5.543572438240313 z"/>
<path fill="#000000" stroke="#000000" d="M0.17755294327762142 -4.517960705105055 L0.8859254511937007 -4.483673961082953 L0.8859254511937007 -5.543572438240313 L0.17755294327762142 -5.577859182262414 z"/>
<path fill="#000000" stroke="#000000" d="M-1.2377238623587625 -4.449458281573646 L-0.5322908242444364 -4.50652388891501 L-0.5322908242444364 -5.566422366072371 L-1.2377238623587625 -5.509356758731007 z"/>
<path fill="#000000" stroke="#000000" d="M-1.9329007307446215 -4.347236746675462 L-1.2377238623587625 -4.449458281573647 L-1.2377238623587625 -5.509356758731007 L-1.9329007307446215 -5.407135223832822 z"/>
<path fill="#000000" stroke="#000000" d="M-2.6120609749336947 -4.200706324051958 L-1.9329007307446215 -4.347236746675461 L-1.9329007307446215 -5.407135223832821 L-2.6120609749336947 -5.260604801209318 z"/>
<path fill="#000000" stroke="#000000" d="M-3.269576859249982 -4.011081210932839 L-2.6120609749336947 -4.20070632405196 L-2.6120609749336947 -5.260604801209318 L-3.269576859249982 -5.070979688090198 z"/>
<path fill="#000000" stroke="#000000" d="M-3.900000000000001 -3.779932700725359 L-3.269576859249982 -4.011081210932838 L-3.269576859249982 -5.0709796880901985 L-3.900000000000001 -4.8398311778827185 z"/>
<path fill="#000000" stroke="#000000" d="M-4.498106512495964 -3.509176162782303 L-3.900000000000001 -3.7799327007253587 L-3.900000000000001 -4.83983117788272 L-4.498106512495964 -4.5690746399396645 z"/>
<path fill="#000000" stroke="#000000" d="M-0.5322908242444364 -4.50652388891501 L0.1775529432776214 -4.517960705105054 L0.1775529432776214 -5.577859182262415 L-0.5322908242444364 -5.566422366072371 z"/>
<path fill="#000000" stroke="#000000" d="M-7.407189651422491 -0.7294678338544239 L-7.154248151742534 -1.198931335084339 L-7.154248151742534 -2.2588298122416988 L-7.407189651422491 -1.7893663110117843 z"/>
<path fill="#000000" stroke="#000000" d="M-6.050548067494476 -2.4832210336274283 L-5.577854110568216 -2.858122913099544 L-5.577854110568216 -3.918021390256903 L-6.050548067494476 -3.543119510784789 z"/>
<path fill="#000000" stroke="#000000" d="M-6.473105277592397 -2.079456087675712 L-6.050548067494476 -2.4832210336274283 L-6.050548067494476 -3.5431195107847886 L-6.473105277592397 -3.1393545648330723 z"/>
<path fill="#000000" stroke="#000000" d="M-6.842024298740236 -1.6501737987470446 L-6.473105277592397 -2.079456087675711 L-6.473105277592397 -3.139354564833072 L-6.842024298740236 -2.7100722759044045 z"/>
<path fill="#000000" stroke="#000000" d="M-7.154248151742534 -1.198931335084339 L-6.842024298740236 -1.6501737987470444 L-6.842024298740236 -2.7100722759044045 L-7.154248151742534 -2.258829812241699 z"/>
<path fill="#000000" stroke="#000000" d="M-5.577854110568217 -2.858122913099543 L-5.0589402978094995 -3.2010551710482993 L-5.058940297809499 -4.2609536482056605 L-5.577854110568216 -3.9180213902569045 z"/>
<path fill="#000000" stroke="#000000" d="M-5.0589402978094995 -3.2010551710482997 L-4.498106512495965 -3.509176162782302 L-4.498106512495965 -4.569074639939662 L-5.0589402978094995 -4.26095364820566 z"/>
<path fill="#000000" stroke="#000000" d="M-7.598752844853138 -0.24567341747988852 L-7.407189651422491 -0.7294678338544242 L-7.407189651422491 -1.7893663110117843 L-7.598752844853138 -1.3055718946372488 z"/>
<path fill="#000000" stroke="#000000" d="M-7.72735037908338 0.2484430411404567 L-7.598752844853138 -0.24567341747988855 L-7.598752844853138 -1.3055718946372488 L-7.72735037908338 -0.8114554360169036 z"/>
<path fill="#000000" stroke="#000000" d="M-7.791916654444475 1.2512128625850483 L-7.791916654444475 0.7487871374149578 L-7.791916654444475 -0.31111133974240246 L-7.791916654444475 0.19131438542768797 z"/>
<path fill="#000000" stroke="#000000" d="M-7.727350379083378 1.7515569588595503 L-7.791916654444474 1.2512128625850483 L-7.791916654444474 0.19131438542768794 L-7.727350379083378 0.6916584817021902 z"/>
<path fill="#000000" stroke="#000000" d="M-7.598752844853135 2.2456734174798956 L-7.727350379083378 1.7515569588595505 L-7.727350379083378 0.6916584817021902 L-7.598752844853135 1.1857749403225353 z"/>
<path fill="#000000" stroke="#000000" d="M-7.791916654444475 0.7487871374149578 L-7.72735037908338 0.2484430411404567 L-7.72735037908338 -0.8114554360169035 L-7.791916654444475 -0.31111133974240246 z"/>
<path fill="#000000" stroke="#000000" d="M-7.407189651422488 2.7294678338544314 L-7.598752844853134 2.2456734174798956 L-7.598752844853134 1.1857749403225355 L-7.407189651422488 1.669569356697071 z"/>
<path fill="#000000" stroke="#000000" d="M-7.1542481517425305 3.1989313350843447 L-7.407189651422487 2.7294678338544314 L-7.407189651422487 1.6695693566970708 L-7.154248151742531 2.1390328579269844 z"/>
<path fill="#000000" stroke="#000000" d="M-6.842024298740231 3.65017379874705 L-7.1542481517425305 3.1989313350843447 L-7.1542481517425305 2.1390328579269844 L-6.842024298740232 2.590275321589689 z"/>
<path fill="#000000" stroke="#000000" d="M-5.577854110568209 4.858122913099548 L-6.05054806749447 4.483221033627434 L-6.05054806749447 3.4233225564700738 L-5.577854110568208 3.7982244359421884 z"/>
<path fill="#000000" stroke="#000000" d="M-6.473105277592393 4.079456087675717 L-6.842024298740232 3.6501737987470495 L-6.842024298740231 2.590275321589689 L-6.473105277592393 3.0195576105183566 z"/>
<path fill="#000000" stroke="#000000" d="M-6.05054806749447 4.483221033627434 L-6.473105277592393 4.079456087675717 L-6.473105277592393 3.0195576105183566 L-6.05054806749447 3.4233225564700738 z"/>
<path fill="#000000" stroke="#000000" d="M-5.05894029780949 5.201055171048306 L-5.577854110568209 4.858122913099548 L-5.577854110568208 3.7982244359421884 L-5.05894029780949 4.141156693890946 z"/>
<path fill="#000000" stroke="#000000" d="M-4.498106512495958 5.509176162782306 L-5.05894029780949 5.201055171048306 L-5.05894029780949 4.141156693890946 L-4.498106512495957 4.4492776856249465 z"/>
<path fill="#000000" stroke="#000000" d="M-3.899999999999993 5.779932700725363 L-4.498106512495957 5.509176162782307 L-4.498106512495957 4.4492776856249465 L-3.899999999999993 4.720034223568002 z"/>
<path fill="#000000" stroke="#000000" d="M-3.2695768592499723 6.011081210932841 L-3.899999999999993 5.779932700725363 L-3.899999999999993 4.720034223568002 L-3.2695768592499723 4.951182733775481 z"/>
<path fill="#000000" stroke="#000000" d="M-2.6120609749336827 6.200706324051961 L-3.2695768592499723 6.011081210932841 L-3.2695768592499723 4.951182733775481 L-2.6120609749336827 5.1408078468946 z"/>
<path fill="#000000" stroke="#000000" d="M-1.9329007307446098 6.347236746675463 L-2.6120609749336827 6.200706324051961 L-2.6120609749336827 5.1408078468946 L-1.9329007307446098 5.287338269518103 z"/>
<path fill="#000000" stroke="#000000" d="M-1.2377238623587494 6.449458281573648 L-1.9329007307446098 6.347236746675463 L-1.9329007307446098 5.287338269518103 L-1.2377238623587494 5.389559804416288 z"/>
<path fill="#000000" stroke="#000000" d="M-0.5322908242444221 6.5065238889150105 L-1.2377238623587494 6.449458281573648 L-1.2377238623587494 5.389559804416288 L-0.5322908242444221 5.44662541175765 z"/>
<path fill="#000000" stroke="#000000" d="M6.268322700548823 4.284742625998616 L5.820232749611939 4.674479933753411 L5.820232749611939 3.6145814565960523 L6.268322700548823 3.2248441488412563 z"/>
<path fill="#000000" stroke="#000000" d="M1.58695690181055 6.403947767607833 L0.8859254511937131 6.4836739610829515 L0.8859254511937131 5.423775483925591 L1.58695690181055 5.344049290450473 z"/>
<path fill="#000000" stroke="#000000" d="M0.8859254511937131 6.4836739610829515 L0.17755294327763654 6.517960705105054 L0.17755294327763654 5.458062227947694 L0.8859254511937131 5.423775483925591 z"/>
<path fill="#000000" stroke="#000000" d="M0.17755294327763652 6.517960705105054 L-0.5322908242444221 6.5065238889150105 L-0.5322908242444221 5.44662541175765 L0.17755294327763652 5.458062227947694 z"/>
<path fill="#000000" stroke="#000000" d="M3.5885072943029854 5.900585561793252 L2.943869726870394 6.1111906290378695 L2.943869726870394 5.051292151880509 L3.5885072943029854 4.840687084635892 z"/>
<path fill="#000000" stroke="#000000" d="M4.203409360141484 5.649372699208208 L3.5885072943029854 5.900585561793252 L3.5885072943029854 4.840687084635892 L4.203409360141484 4.589474222050848 z"/>
<path fill="#000000" stroke="#000000" d="M4.783480652212981 5.359633670178326 L4.203409360141484 5.649372699208208 L4.203409360141484 4.589474222050848 L4.783480652212981 4.2997351930209655 z"/>
<path fill="#000000" stroke="#000000" d="M5.323914517105495 5.033769343547668 L4.783480652212982 5.359633670178325 L4.783480652212982 4.299735193020965 L5.323914517105495 3.9738708663903086 z"/>
<path fill="#000000" stroke="#000000" d="M5.820232749611939 4.674479933753412 L5.323914517105495 5.033769343547669 L5.323914517105495 3.9738708663903086 L5.820232749611939 3.614581456596052 z"/>
<path fill="#000000" stroke="#000000" d="M2.943869726870394 6.1111906290378695 L2.2748383277476383 6.279442761027556 L2.2748383277476383 5.219544283870196 L2.943869726870394 5.051292151880509 z"/>
<path fill="#000000" stroke="#000000" d="M2.2748383277476383 6.279442761027555 L1.58695690181055 6.403947767607833 L1.58695690181055 5.344049290450473 L2.2748383277476383 5.219544283870195 z"/>
<path fill="#000000" stroke="#000000" d="M6.664471355462604 3.867786906358016 L6.268322700548823 4.284742625998616 L6.268322700548823 3.2248441488412563 L6.664471355462604 2.8078884292006556 z"/>
<path fill="#000000" stroke="#000000" d="M7.005396101836822 3.427067801239307 L6.664471355462603 3.867786906358016 L6.664471355462604 2.8078884292006556 L7.005396101836823 2.3671693240819467 z"/>
<path fill="#000000" stroke="#000000" d="M7.671001272743183 1.9996511530036736 L7.510754841312828 2.489113833575931 L7.510754841312828 1.429215356418571 L7.671001272743183 0.9397526758463132 z"/>
<path fill="#000000" stroke="#000000" d="M7.288271929853228 2.966237247946229 L7.005396101836823 3.427067801239307 L7.005396101836822 2.3671693240819467 L7.288271929853227 1.906338770788869 z"/>
<path fill="#000000" stroke="#000000" d="M7.510754841312828 2.489113833575931 L7.288271929853227 2.9662372479462293 L7.288271929853227 1.9063387707888688 L7.510754841312828 1.429215356418571 z"/>
<path fill="#000000" stroke="#000000" d="M7.767683371745941 1.5019050481505543 L7.671001272743183 1.9996511530036736 L7.671001272743183 0.9397526758463132 L7.767683371745941 0.44200657099319407 z"/>
<path fill="#000000" stroke="#000000" d="M7.799999999999999 1 L7.767683371745941 1.5019050481505543 L7.767683371745941 0.44200657099319407 L7.799999999999999 -0.0598984771573603 z"/>
<path fill="#000000" stroke="#000000" d="M7.767683371745944 -0.561803525307896 L7.8 -0.0598984771573603 L7.7676833717459415 0.44200657099319407 L7.671001272743184 0.9397526758463133 L7.510754841312829 1.429215356418571 L7.288271929853228 1.906338770788869 L7.005396101836823 2.3671693240819467 L6.664471355462604 2.8078884292006556 L6.268322700548823 3.2248441488412563 L5.820232749611939 3.614581456596052 L5.323914517105495 3.9738708663903086 L4.783480652212982 4.299735193020964 L4.203409360141485 4.589474222050847 L3.588507294302986 4.840687084635891 L2.9438697268703944 5.051292151880508 L2.2748383277476387 5.219544283870195 L1.5869569018105503 5.344049290450472 L0.8859254511937132 5.423775483925591 L0.17755294327763657 5.458062227947694 L-0.5322908242444222 5.44662541175765 L-1.2377238623587496 5.389559804416288 L-1.93290073074461 5.287338269518102 L-2.612060974933683 5.1408078468945995 L-3.2695768592499728 4.95118273377548 L-3.8999999999999932 4.7200342235680015 L-4.498106512495958 4.449277685624946 L-5.05894029780949 4.141156693890946 L-5.577854110568209 3.7982244359421884 L-6.05054806749447 3.423322556470074 L-6.473105277592393 3.0195576105183566 L-6.842024298740232 2.5902753215896896 L-7.154248151742531 2.139032857926984 L-7.407189651422488 1.6695693566970708 L-7.598752844853135 1.1857749403225355 L-7.727350379083379 0.6916584817021902 L-7.791916654444475 0.19131438542768797 L-7.791916654444475 -0.31111133974240246 L-7.72735037908338 -0.8114554360169036 L-7.598752844853138 -1.3055718946372485 L-7.407189651422491 -1.7893663110117843 L-7.154248151742534 -2.258829812241699 L-6.842024298740236 -2.7100722759044045 L-6.473105277592397 -3.139354564833072 L-6.050548067494476 -3.5431195107847886 L-5.577854110568216 -3.918021390256904 L-5.058940297809499 -4.26095364820566 L-4.498106512495965 -4.569074639939662 L-3.9000000000000017 -4.839831177882718 L-3.2695768592499825 -5.070979688090197 L-2.612060974933695 -5.260604801209317 L-1.9329007307446218 -5.40713522383282 L-1.237723862358763 -5.5093567587310055 L-0.5322908242444365 -5.566422366072369 L0.17755294327762144 -5.577859182262413 L0.8859254511937008 -5.543572438240312 L1.5869569018105407 -5.463846244765193 L2.2748383277476316 -5.3393412381849155 L2.9438697268703904 -5.17108910619523 L3.588507294302984 -4.960484038950612 L4.203409360141486 -4.709271176365566 L4.783480652212984 -4.4195321473356834 L5.323914517105499 -4.093667820705026 L5.820232749611944 -3.7343784109107685 L6.268322700548827 -3.3446411031559733 L6.664471355462609 -2.92768538351537 L7.005396101836829 -2.4869662783966584 L7.288271929853234 -2.0261357251035776 L7.510754841312834 -1.5490123107332776 L7.6710012727431875 -1.0595496301610179 M-3.247595264191645 -1.3866751269035522 L-3.280138211600497 -1.3399792621336417 L-3.464548246917326 -1.0753693617708144 L-3.4881992871673275 -1.0260672487442857 L-3.6222218485840063 -0.7466886082606217 L-3.6365763058191733 -0.6956238198004866 L-3.7101671926160584 -0.4338303569539728 L-3.7179182301517892 -0.4062566851930543 L-3.722730495629021 -0.3543029539877 L-3.75 -0.05989847715735894 L-3.745187734522768 -0.007944745952004712 L-3.717918230151789 0.2864597308783359 L-3.7035637729166213 0.3375245193384709 L-3.6222218485840063 0.6268916539459027 L-3.598570808334004 0.6761937669724316 L-3.4645482469173254 0.955572407456095 L-3.4320052995084733 1.0022682722260057 L-3.247595264191645 1.2668781725888323 L-3.206717228476718 1.3101688099093718 L-2.975075026092133 1.5554824213924294 L-2.926561336595746 1.5946271164566115 L-2.6516504294495546 1.8164470551536422 L-2.596331168849527 1.8507760313759585 L-2.2828553587827045 2.045306896635751 L-2.221677054965299 2.0742327757152474 L-1.8750000000000029 2.2381460904990615 L-1.809009430705366 2.2611739426249193 L-1.43506287136909 2.3916651046714463 L-1.3653891535338947 2.4084009169092653 L-0.9705714191344554 2.5032371862569054 L-0.8984066893880666 2.513394604219252 L-0.4894732208251966 2.570953306005885 L-0.4160522377014177 2.5743585334552557 L-3.789911623555727e-15 2.5936548223350253 L0.07342098312377514 2.5902495948856545 L0.4894732208251891 2.570953306005886 L0.5616379505715782 2.560795888043539 L0.9705714191344497 2.5032371862569063 L1.0402451369696446 2.4865013740190878 L1.4350628713690832 2.391665104671448 L1.5010534406637202 2.3686372525455908 L1.8749999999999978 2.2381460904990633 L1.9361783038174032 2.209220211419567 L2.2828553587827014 2.045306896635753 L2.338174619382729 2.0109779204134366 L2.5682624642589365 1.8681943750419825 L2.651650429449553 1.816447055153644 L2.7001641189459393 1.7773023600894617 L2.975075026092131 1.555482421392431 L3.015953061807058 1.5121917840718908 L3.2475952641916455 1.2668781725888316 L3.280138211600497 1.2201823078189211 L3.464548246917326 0.9555724074560944 L3.488199287167328 0.9062702944295652 L3.622221848584007 0.6268916539459 L3.6365763058191742 0.5758268654857649 L3.7179182301517892 0.28645973087833304 L3.722730495629021 0.23450599967297908 L3.75 -0.05989847715736012 L3.745187734522768 -0.11185220836271442 L3.717918230151789 -0.4062566851930555 L3.7035637729166213 -0.45732147365319065 L3.622221848584006 -0.746688608260623 L3.5985708083340033 -0.795990721287152 L3.464548246917325 -1.0753693617708155 L3.4320052995084724 -1.1220652265407263 L3.247595264191644 -1.3866751269035538 L3.206717228476717 -1.4299657642240933 L2.975075026092131 -1.6752793757071507 L2.926561336595744 -1.7144240707713327 L2.6516504294495524 -1.936244009468364 L2.5963311688495248 -1.97057298569068 L2.282855358782702 -2.1651038509504725 L2.2216770549652964 -2.194029730029969 L1.8749999999999993 -2.3579430448137826 L1.8090094307053621 -2.3809708969396404 L1.435062871369086 -2.511462058986168 L1.365389153533891 -2.5281978712239863 L0.9705714191344523 -2.623034140571626 L0.8984066893880633 -2.6331915585339725 L0.4894732208251929 -2.690750260320605 L0.41605223770141386 -2.694155487769976 L-4.904815075324639e-16 -2.7134517766497455 L-0.0734209831237795 -2.7100465492003742 L-0.4894732208251939 -2.690750260320605 L-0.5616379505715827 -2.680592842358258 L-0.9705714191344532 -2.623034140571626 L-1.0402451369696482 -2.606298328333807 L-1.435062871369087 -2.5114620589861674 L-1.5010534406637237 -2.4884342068603096 L-1.875 -2.357943044813782 L-1.9361783038174052 -2.3290171657342857 L-2.2828553587827023 -2.165103850950472 L-2.3381746193827295 -2.130774874728156 L-2.651650429449553 -1.9362440094683633 L-2.7001641189459393 -1.8970993144041814 L-2.975075026092132 -1.67527937570715 L-3.0159530618070587 -1.6319887383866103 z"/>
<path fill="#000000" stroke="#000000" d="M7.8 1 L7.767683371745944 0.4980949518494641 L7.6710012727431875 0.0003488469963424303 L7.510754841312834 -0.4891138335759173 L7.288271929853234 -0.9662372479462175 L7.005396101836829 -1.4270678012392983 L6.664471355462609 -1.8677869063580097 L6.268322700548827 -2.284742625998613 L5.820232749611944 -2.6744799337534078 L5.323914517105499 -3.033769343547665 L4.783480652212984 -3.359633670178323 L4.203409360141486 -3.6493726992082065 L3.588507294302984 -3.9005855617932514 L2.9438697268703904 -4.1111906290378695 L2.2748383277476316 -4.279442761027555 L1.5869569018105407 -4.403947767607833 L0.8859254511937008 -4.4836739610829515 L0.17755294327762144 -4.517960705105053 L-0.5322908242444365 -4.506523888915009 L-1.237723862358763 -4.449458281573645 L-1.9329007307446218 -4.34723674667546 L-2.612060974933695 -4.200706324051957 L-3.2695768592499825 -4.011081210932836 L-3.9000000000000017 -3.779932700725358 L-4.498106512495965 -3.509176162782302 L-5.058940297809499 -3.2010551710482997 L-5.577854110568216 -2.8581229130995434 L-6.050548067494476 -2.4832210336274283 L-6.473105277592397 -2.0794560876757116 L-6.842024298740236 -1.6501737987470444 L-7.154248151742534 -1.198931335084339 L-7.407189651422491 -0.729467833854424 L-7.598752844853138 -0.24567341747988852 L-7.72735037908338 0.24844304114045673 L-7.791916654444475 0.7487871374149578 L-7.791916654444475 1.251212862585048 L-7.727350379083379 1.7515569588595505 L-7.598752844853135 2.2456734174798956 L-7.407189651422488 2.729467833854431 L-7.154248151742531 3.1989313350843447 L-6.842024298740232 3.65017379874705 L-6.473105277592393 4.079456087675717 L-6.05054806749447 4.4832210336274345 L-5.577854110568209 4.858122913099548 L-5.05894029780949 5.201055171048306 L-4.498106512495958 5.509176162782306 L-3.8999999999999932 5.779932700725362 L-3.2695768592499728 6.01108121093284 L-2.612060974933683 6.20070632405196 L-1.93290073074461 6.3472367466754624 L-1.2377238623587496 6.449458281573648 L-0.5322908242444222 6.5065238889150105 L0.17755294327763657 6.517960705105054 L0.8859254511937132 6.4836739610829515 L1.5869569018105503 6.403947767607832 L2.2748383277476387 6.279442761027555 L2.9438697268703944 6.111190629037869 L3.588507294302986 5.900585561793251 L4.203409360141485 5.649372699208207 L4.783480652212982 5.359633670178325 L5.323914517105495 5.033769343547669 L5.820232749611939 4.674479933753412 L6.268322700548823 4.284742625998616 L6.664471355462604 3.867786906358016 L7.005396101836823 3.427067801239307 L7.288271929853228 2.966237247946229 L7.510754841312829 2.489113833575931 L7.671001272743184 1.9996511530036734 L7.7676833717459415 1.5019050481505543 M3.717918230151789 0.6536417919643048 L3.75 1 L3.7179182301517892 1.346358208035693 L3.622221848584007 1.6867901311032603 L3.464548246917326 2.0154708846134546 L3.2475952641916455 2.3267766497461917 L2.975075026092131 2.615380898549791 L2.651650429449553 2.8763455323110043 L2.5682624642589365 2.928092852199343 L2.2828553587827014 3.105205373793113 L1.8749999999999978 3.2980445676564236 L1.4350628713690832 3.451563581828809 L0.9705714191344497 3.563135663414267 L0.4894732208251891 3.630851783163246 L-3.789911623555727e-15 3.6535532994923856 L-0.4894732208251966 3.630851783163245 L-0.9705714191344554 3.5631356634142657 L-1.43506287136909 3.451563581828807 L-1.8750000000000029 3.298044567656422 L-2.2828553587827045 3.1052053737931113 L-2.6516504294495546 2.876345532311002 L-2.975075026092133 2.6153808985497897 L-3.247595264191645 2.326776649746192 L-3.4645482469173254 2.015470884613455 L-3.6222218485840063 1.686790131103263 L-3.717918230151789 1.3463582080356962 L-3.75 1.0000000000000013 L-3.7179182301517892 0.6536417919643059 L-3.7101671926160584 0.6260681202033874 L-3.6222218485840063 0.31320986889673846 L-3.464548246917326 -0.015470884613454357 L-3.247595264191645 -0.3267766497461921 L-2.975075026092132 -0.6153808985497897 L-2.651650429449553 -0.8763455323110032 L-2.2828553587827023 -1.105205373793112 L-1.875 -1.298044567656422 L-1.435062871369087 -1.4515635818288073 L-0.9705714191344532 -1.5631356634142657 L-0.4894732208251939 -1.6308517831632448 L-4.904815075324639e-16 -1.6535532994923852 L0.4894732208251929 -1.6308517831632448 L0.9705714191344523 -1.5631356634142657 L1.435062871369086 -1.4515635818288075 L1.8749999999999993 -1.2980445676564223 L2.282855358782702 -1.1052053737931125 L2.6516504294495524 -0.8763455323110035 L2.975075026092131 -0.6153808985497904 L3.247595264191644 -0.3267766497461933 L3.464548246917325 -0.015470884613455457 L3.622221848584006 0.31320986889673724 z"/>
</svg>