<?xml version="1.0" encoding="UTF-8"?>
<!-- Generated by jsxcad -->
<!DOCTYPE svg PUBLIC "-//W3C//DTD SVG 1.1 Tiny//EN" "http://www.w3.org/Graphics/SVG/1.1/DTD/svg11-tiny.dtd">
<svg baseProfile="tiny" height="14.122345651119627mm" width="9.94415413112565mm" viewBox="-4.9441541311256465 -6.86151123503528 9.94415413112565 14.122345651119627" version="1.1" stroke="black" stroke-width=".1" fill="none" xmlns="http://www.w3.org/2000/svg">
<path fill="#000000" stroke="#000000" d="M4.777864028930703 -4.77552126851641 L4.777864028930703 2.290468579199324 L5 3.3333333333333357 L5 -3.7326565143823998 z"/>
<path fill="#000000" stroke="#000000" d="M4.131193871579975 -5.72572291270902 L4.131193871579974 1.340266935006714 L4.777864028930703 2.290468579199324 L4.777864028930703 -4.775521268516411 z"/>
<path fill="#000000" stroke="#000000" d="M1.8267051218319752 -7.026153990549965 L1.8267051218319752 0.03983585716576694 L3.117449009293667 0.567157986733247 L3.117449009293667 -6.498831860982484 z"/>
<path fill="#000000" stroke="#000000" d="M0.37365046793212164 -7.260834416084342 L0.37365046793212164 -0.19484456836860764 L1.8267051218319752 0.039835857165768686 L1.8267051218319752 -7.026153990549966 z"/>
<path fill="#000000" stroke="#000000" d="M3.117449009293668 -6.4988318609824836 L3.1174490092936695 0.5671579867332499 L4.131193871579975 1.3402669350067138 L4.131193871579974 -5.7257229127090215 z"/>
<path fill="#000000" stroke="#000000" d="M-1.1126046697815712 -7.1820207518988015 L-1.1126046697815712 -0.11603090418306908 L0.37365046793212164 -0.1948445683686093 L0.37365046793212164 -7.260834416084342 z"/>
<path fill="#000000" stroke="#000000" d="M-2.4999999999999987 -6.796715937924298 L-2.4999999999999987 0.26927390979143584 L-1.1126046697815712 -0.11603090418306819 L-1.1126046697815712 -7.182020751898802 z"/>
<path fill="#000000" stroke="#000000" d="M-3.665259359149132 -6.13915599776479 L-3.6652593591491325 0.926833849950945 L-2.5000000000000018 0.26927390979143956 L-2.5000000000000004 -6.796715937924296 z"/>
<path fill="#000000" stroke="#000000" d="M-4.504844339512096 -5.26776801775772 L-4.504844339512095 1.7982218299580155 L-3.665259359149131 0.9268338499509454 L-3.665259359149132 -6.13915599776479 z"/>
<path fill="#000000" stroke="#000000" d="M-4.944154131125643 -4.2599786439498795 L-4.944154131125643 2.806011203765855 L-4.504844339512095 1.7982218299580153 L-4.504844339512095 -5.267768017757719 z"/>
<path fill="#000000" stroke="#000000" d="M-4.944154131125643 -3.20533438481492 L-4.944154131125643 3.8606554629008154 L-4.944154131125643 2.806011203765855 L-4.944154131125643 -4.25997864394988 z"/>
<path fill="#000000" stroke="#000000" d="M0.3736504679321198 -0.20447861268045864 L0.3736504679321198 6.861511235035276 L-1.1126046697815746 6.782697570849735 L-1.1126046697815746 -0.28329227686599945 z"/>
<path fill="#000000" stroke="#000000" d="M-2.5000000000000004 -0.6685970908405029 L-2.5000000000000004 6.397392756875232 L-3.665259359149132 5.739832816715725 L-3.665259359149131 -1.326157031000011 z"/>
<path fill="#000000" stroke="#000000" d="M-1.1126046697815746 -0.28329227686599995 L-1.1126046697815746 6.782697570849736 L-2.5000000000000013 6.397392756875232 L-2.5000000000000013 -0.668597090840504 z"/>
<path fill="#000000" stroke="#000000" d="M-3.6652593591491316 -1.3261570310000104 L-3.6652593591491316 5.739832816715724 L-4.504844339512095 4.868444836708655 L-4.504844339512095 -2.19754501100708 z"/>
<path fill="#000000" stroke="#000000" d="M-4.504844339512095 -2.1975450110070796 L-4.504844339512096 4.868444836708655 L-4.944154131125642 3.8606554629008154 L-4.944154131125642 -3.20533438481492 z"/>
<path fill="#000000" stroke="#000000" d="M1.826705121831975 -0.4391590382148351 L1.826705121831975 6.626830809500899 L0.3736504679321198 6.861511235035276 L0.3736504679321198 -0.20447861268045878 z"/>
<path fill="#000000" stroke="#000000" d="M3.1174490092936686 -0.9664811677823161 L3.1174490092936686 6.09950867993342 L1.8267051218319748 6.626830809500901 L1.8267051218319748 -0.439159038214835 z"/>
<path fill="#000000" stroke="#000000" d="M4.131193871579972 -1.739590116055778 L4.131193871579973 5.326399731659957 L3.1174490092936686 6.09950867993342 L3.117449009293668 -0.9664811677823152 z"/>
<path fill="#000000" stroke="#000000" d="M4.777864028930705 -2.6897917602483923 L4.777864028930705 4.376198087467342 L4.131193871579973 5.326399731659957 L4.131193871579973 -1.7395901160557778 z"/>
<path fill="#000000" stroke="#000000" d="M4.999999999999999 -3.7326565143823993 L4.999999999999999 3.3333333333333357 L4.777864028930705 4.376198087467342 L4.777864028930705 -2.6897917602483923 z"/>
<path fill="#000000" stroke="#000000" d="M4.777864028930703 -4.77552126851641 L5 -3.7326565143823998 L4.777864028930706 -2.6897917602483923 L4.131193871579974 -1.7395901160557778 L3.117449009293669 -0.9664811677823154 L1.8267051218319752 -0.43915903821483443 L0.37365046793211987 -0.20447861268045806 L-1.1126046697815748 -0.2832922768659989 L-2.5000000000000018 -0.668597090840503 L-3.6652593591491325 -1.3261570310000104 L-4.504844339512096 -2.1975450110070796 L-4.944154131125643 -3.2053343848149196 L-4.944154131125643 -4.25997864394988 L-4.504844339512095 -5.26776801775772 L-3.665259359149131 -6.13915599776479 L-2.499999999999999 -6.796715937924297 L-1.1126046697815715 -7.182020751898801 L0.3736504679321217 -7.26083441608434 L1.8267051218319754 -7.026153990549965 L3.1174490092936673 -6.4988318609824836 L4.131193871579974 -5.725722912709021 z"/>
<path fill="#000000" stroke="#000000" d="M5 3.3333333333333357 L4.777864028930703 2.290468579199324 L4.131193871579974 1.3402669350067142 L3.1174490092936673 0.5671579867332508 L1.8267051218319754 0.039835857165770705 L0.3736504679321217 -0.19484456836860561 L-1.1126046697815715 -0.1160309041830654 L-2.499999999999999 0.26927390979143867 L-3.665259359149131 0.9268338499509453 L-4.504844339512095 1.7982218299580155 L-4.944154131125643 2.806011203765855 L-4.944154131125643 3.8606554629008154 L-4.504844339512096 4.868444836708655 L-3.6652593591491325 5.739832816715724 L-2.5000000000000018 6.397392756875233 L-1.1126046697815748 6.782697570849736 L0.37365046793211987 6.861511235035277 L1.8267051218319752 6.626830809500901 L3.117449009293669 6.099508679933419 L4.131193871579974 5.326399731659957 L4.777864028930706 4.376198087467342 z"/>
</svg>